<svg width="82" height="87" viewBox="0 0 82 87" fill="none" xmlns="http://www.w3.org/2000/svg">
<g clip-path="url(#clip0_29_3432)">
<path d="M35.0313 42.4256C35.192 41.8711 35.3527 41.3628 35.4905 40.8545C36.1562 38.2437 36.799 35.6329 37.6713 33.0683C39.2553 28.4243 41.0918 23.8727 42.9743 19.3443C45.0634 14.3306 47.1062 9.31691 49.1723 4.30323C49.494 3.49458 49.884 2.73212 50.2745 1.94657C50.4121 1.64622 50.6186 1.36896 50.8485 1.13792C51.2385 0.745141 51.7437 0.906872 51.7895 1.46138C51.8354 1.92347 51.8354 2.38556 51.7437 2.84765C51.3991 4.81154 51.0549 6.7754 50.6415 8.7162C49.5399 14.0071 48.4148 19.298 47.5425 24.6352C47.0374 27.7774 46.6014 30.9196 46.1651 34.0618C45.7751 36.8343 45.4534 39.5838 45.1093 42.3563C45.0634 42.7722 45.0405 43.1881 44.9946 43.7193C45.224 43.5808 45.3387 43.5116 45.4534 43.4191C45.9127 43.0032 46.3945 42.5873 46.8079 42.1253C51.2614 37.4581 56.2889 33.4611 61.5917 29.8106C61.9134 29.6026 62.2346 29.3947 62.5791 29.2099C62.7627 29.1174 62.9692 29.0712 63.1527 29.0481C63.5202 29.025 63.7955 29.2792 63.7955 29.6489C63.7955 29.9261 63.7496 30.2496 63.612 30.5037C63.2908 31.1737 62.9692 31.8438 62.5562 32.4445C61.1787 34.3853 59.8013 36.326 58.378 38.2206C56.243 41.0624 54.0622 43.8814 51.9043 46.7233C51.4909 47.2543 51.1238 47.8322 50.7792 48.4329C50.2745 49.2878 50.3662 49.7036 51.2155 50.2351C51.8584 50.6277 52.5241 50.9742 53.2129 51.2748C55.692 52.3373 58.2633 53.1694 60.8342 53.9546C67.3768 55.988 73.8505 58.2292 80.1866 60.8397C80.5766 61.0014 80.99 61.1403 81.3801 61.302C81.5407 61.3712 81.6787 61.4404 81.8164 61.5561C82.1147 61.8335 82.0229 62.3185 81.6329 62.4574C81.4948 62.5034 81.3342 62.5266 81.1965 62.5266C79.6585 62.5494 78.1205 62.5958 76.5824 62.5494C72.6796 62.3877 68.7771 61.9719 64.8976 61.4869C59.2044 60.7937 53.557 59.8464 47.9559 58.6682C47.1984 58.5061 46.4404 58.3909 45.6829 58.252C45.5223 58.2292 45.3617 58.206 45.1781 58.2292C44.5812 58.2292 44.3288 58.3677 44.1678 58.9684C43.9613 59.7772 43.7778 60.5856 43.6401 61.3944C43.0202 64.883 42.515 68.3953 42.1248 71.9299C41.8723 74.2175 41.6887 76.5279 41.4132 78.815C41.2066 80.6171 40.9081 82.3965 40.6556 84.1986C40.5868 84.5912 40.449 84.9842 40.3113 85.3536C40.1735 85.7466 39.921 86.0932 39.4389 86.0932C39.0028 86.07 38.7503 85.7466 38.6355 85.3536C38.4289 84.7301 38.2223 84.0829 38.1304 83.4362C37.9009 81.8882 37.6713 80.317 37.5795 78.769C37.3499 74.9798 37.1663 71.2139 37.0515 67.4248C36.9826 65.1372 37.0515 62.85 37.0745 60.5628C37.0745 60.3547 37.0745 60.1238 37.0745 59.8232C36.7301 59.8696 36.4317 59.8696 36.1332 59.9157C32.8275 60.4704 29.5907 61.2327 26.3309 62.0184C20.7754 63.3122 15.22 64.7213 9.59574 65.8535C7.20827 66.3386 4.79785 66.7548 2.38744 67.1934C1.97423 67.2631 1.53806 67.2859 1.12484 67.3323C1.01006 67.3323 0.895282 67.3555 0.803455 67.3323C0.321373 67.3091 0.0688531 67.1706 0.0229404 66.87C-0.0459286 66.4775 0.206591 66.2926 0.482065 66.1309C1.10189 65.7843 1.69875 65.4609 2.31857 65.1371C8.17243 62.0184 14.164 59.1765 20.1097 56.2654C22.8874 54.9019 25.6192 53.4003 28.3511 51.9447C28.6954 51.7598 28.9938 51.5517 29.407 51.2976C29.2004 51.0207 29.0397 50.7433 28.8331 50.5352C27.6853 49.2878 26.5834 47.9939 25.3438 46.8385C22.8645 44.5281 20.3393 42.287 17.7912 40.0459C14.692 37.3195 11.6389 34.547 8.83816 31.5203C8.21836 30.8503 7.6215 30.134 7.04758 29.4178C6.8869 29.233 6.74916 29.0019 6.61141 28.7709C6.42774 28.4474 6.45073 28.147 6.6573 27.9391C6.84097 27.7312 7.1394 27.7081 7.46077 27.8698C7.57557 27.916 7.69037 28.0084 7.80513 28.0546C9.3432 28.9326 10.8354 29.8568 12.3964 30.6886C17.0336 33.1376 21.6937 35.5867 26.2391 38.2437C28.4199 39.5144 30.6926 40.5773 33.08 41.4321C33.4473 41.5707 33.7687 41.7556 34.1131 41.9404C34.4115 42.079 34.687 42.2408 35.0313 42.4256Z" fill="#FFE58D"/>
</g>
<defs>
<clipPath id="clip0_29_3432">
<rect width="82" height="87" fill="white"/>
</clipPath>
</defs>
</svg>
