<svg width="1440" height="400" viewBox="0 0 1440 400" fill="none" xmlns="http://www.w3.org/2000/svg">
<rect width="1440" height="399.752" fill="#110E20"/>
<path d="M534.222 107.312C532.878 107.312 531.706 106.984 530.706 106.328C529.714 105.672 528.942 104.792 528.39 103.688C527.846 102.576 527.574 101.344 527.574 99.992V90.2H530.07V99.992C530.07 100.872 530.23 101.68 530.55 102.416C530.878 103.144 531.35 103.728 531.966 104.168C532.59 104.6 533.342 104.816 534.222 104.816C535.126 104.816 535.886 104.6 536.502 104.168C537.118 103.728 537.582 103.144 537.894 102.416C538.214 101.68 538.374 100.872 538.374 99.992V90.2H540.87V99.992C540.87 101.008 540.714 101.96 540.402 102.848C540.09 103.728 539.642 104.504 539.058 105.176C538.474 105.848 537.774 106.372 536.958 106.748C536.142 107.124 535.23 107.312 534.222 107.312ZM546.546 107.228C545.914 107.188 545.298 107.06 544.698 106.844C544.098 106.628 543.57 106.336 543.114 105.968C542.666 105.592 542.33 105.152 542.106 104.648L544.23 103.736C544.334 103.952 544.514 104.164 544.77 104.372C545.034 104.58 545.342 104.752 545.694 104.888C546.046 105.016 546.414 105.08 546.798 105.08C547.174 105.08 547.522 105.028 547.842 104.924C548.17 104.812 548.438 104.644 548.646 104.42C548.854 104.196 548.958 103.928 548.958 103.616C548.958 103.264 548.838 102.992 548.598 102.8C548.366 102.6 548.074 102.448 547.722 102.344C547.37 102.24 547.018 102.14 546.666 102.044C545.882 101.868 545.162 101.628 544.506 101.324C543.858 101.012 543.342 100.616 542.958 100.136C542.574 99.648 542.382 99.052 542.382 98.348C542.382 97.58 542.59 96.916 543.006 96.356C543.422 95.788 543.966 95.352 544.638 95.048C545.318 94.744 546.042 94.592 546.81 94.592C547.77 94.592 548.65 94.796 549.45 95.204C550.25 95.612 550.862 96.172 551.286 96.884L549.306 98.06C549.186 97.82 549.006 97.604 548.766 97.412C548.526 97.22 548.254 97.068 547.95 96.956C547.646 96.836 547.33 96.768 547.002 96.752C546.594 96.736 546.214 96.784 545.862 96.896C545.518 97 545.242 97.168 545.034 97.4C544.826 97.632 544.722 97.928 544.722 98.288C544.722 98.64 544.846 98.904 545.094 99.08C545.342 99.248 545.654 99.384 546.03 99.488C546.414 99.592 546.806 99.708 547.206 99.836C547.918 100.06 548.586 100.336 549.21 100.664C549.834 100.984 550.338 101.38 550.722 101.852C551.106 102.324 551.29 102.9 551.274 103.58C551.274 104.332 551.046 104.992 550.59 105.56C550.142 106.128 549.558 106.56 548.838 106.856C548.118 107.152 547.354 107.276 546.546 107.228ZM557.645 107.312C556.541 107.312 555.533 107.028 554.621 106.46C553.717 105.892 552.993 105.132 552.449 104.18C551.913 103.22 551.645 102.16 551.645 101C551.645 100.12 551.801 99.3 552.113 98.54C552.425 97.772 552.853 97.1 553.397 96.524C553.949 95.94 554.589 95.484 555.317 95.156C556.045 94.828 556.821 94.664 557.645 94.664C558.565 94.664 559.409 94.856 560.177 95.24C560.945 95.616 561.601 96.14 562.145 96.812C562.689 97.476 563.089 98.244 563.345 99.116C563.601 99.98 563.677 100.9 563.573 101.876H554.321C554.425 102.428 554.625 102.928 554.921 103.376C555.225 103.816 555.609 104.164 556.073 104.42C556.545 104.676 557.069 104.808 557.645 104.816C558.253 104.816 558.805 104.664 559.301 104.36C559.805 104.056 560.217 103.636 560.537 103.1L563.069 103.688C562.589 104.752 561.865 105.624 560.897 106.304C559.929 106.976 558.845 107.312 557.645 107.312ZM554.237 99.968H561.053C560.973 99.392 560.769 98.872 560.441 98.408C560.121 97.936 559.717 97.564 559.229 97.292C558.749 97.012 558.221 96.872 557.645 96.872C557.077 96.872 556.549 97.008 556.061 97.28C555.581 97.552 555.181 97.924 554.861 98.396C554.549 98.86 554.341 99.384 554.237 99.968ZM574.085 89H576.581V107H574.085V105.236C573.693 105.86 573.181 106.364 572.549 106.748C571.917 107.124 571.177 107.312 570.329 107.312C569.457 107.312 568.641 107.148 567.881 106.82C567.121 106.492 566.449 106.04 565.865 105.464C565.289 104.88 564.837 104.208 564.509 103.448C564.181 102.688 564.017 101.872 564.017 101C564.017 100.128 564.181 99.312 564.509 98.552C564.837 97.784 565.289 97.112 565.865 96.536C566.449 95.952 567.121 95.496 567.881 95.168C568.641 94.84 569.457 94.676 570.329 94.676C571.177 94.676 571.917 94.868 572.549 95.252C573.181 95.628 573.693 96.124 574.085 96.74V89ZM570.353 104.9C571.057 104.9 571.673 104.728 572.201 104.384C572.729 104.032 573.137 103.56 573.425 102.968C573.721 102.376 573.869 101.72 573.869 101C573.869 100.272 573.721 99.612 573.425 99.02C573.129 98.428 572.717 97.96 572.189 97.616C571.669 97.264 571.057 97.088 570.353 97.088C569.657 97.088 569.021 97.264 568.445 97.616C567.877 97.968 567.421 98.44 567.077 99.032C566.741 99.624 566.573 100.28 566.573 101C566.573 101.728 566.745 102.388 567.089 102.98C567.441 103.564 567.901 104.032 568.469 104.384C569.045 104.728 569.673 104.9 570.353 104.9ZM589.861 94.664C591.029 94.664 592.089 94.948 593.041 95.516C594.001 96.084 594.765 96.848 595.333 97.808C595.901 98.76 596.185 99.82 596.185 100.988C596.185 101.86 596.021 102.68 595.693 103.448C595.365 104.208 594.909 104.88 594.325 105.464C593.749 106.04 593.077 106.492 592.309 106.82C591.549 107.148 590.733 107.312 589.861 107.312C589.021 107.312 588.285 107.12 587.653 106.736C587.029 106.344 586.517 105.844 586.117 105.236V107H583.621V89H586.117V96.74C586.517 96.124 587.029 95.624 587.653 95.24C588.285 94.856 589.021 94.664 589.861 94.664ZM589.837 104.888C590.533 104.888 591.169 104.712 591.745 104.36C592.321 104.008 592.777 103.536 593.113 102.944C593.457 102.352 593.629 101.7 593.629 100.988C593.629 100.26 593.457 99.6 593.113 99.008C592.769 98.416 592.309 97.948 591.733 97.604C591.157 97.252 590.525 97.076 589.837 97.076C589.141 97.076 588.529 97.252 588.001 97.604C587.473 97.956 587.061 98.428 586.765 99.02C586.469 99.612 586.321 100.268 586.321 100.988C586.321 101.708 586.469 102.364 586.765 102.956C587.061 103.548 587.473 104.02 588.001 104.372C588.529 104.716 589.141 104.888 589.837 104.888ZM604.822 95H607.486L600.91 113H598.258L600.43 107L596.122 95H598.846L601.678 103.58L604.822 95ZM620.393 97.496H617.873L617.861 107H615.365L615.377 97.496H613.469V95H615.377L615.365 91.232H617.861L617.873 95H620.393V97.496ZM632.542 99.476V107H630.046V100.088C630.046 99.552 629.914 99.064 629.65 98.624C629.394 98.184 629.046 97.836 628.606 97.58C628.174 97.316 627.686 97.184 627.142 97.184C626.614 97.184 626.13 97.316 625.69 97.58C625.25 97.836 624.898 98.184 624.634 98.624C624.37 99.064 624.238 99.552 624.238 100.088V107H621.742V89H624.238V96.272C624.654 95.776 625.166 95.384 625.774 95.096C626.382 94.808 627.038 94.664 627.742 94.664C628.63 94.664 629.438 94.88 630.166 95.312C630.894 95.744 631.47 96.324 631.894 97.052C632.326 97.78 632.542 98.588 632.542 99.476ZM639.182 107.312C638.078 107.312 637.07 107.028 636.158 106.46C635.254 105.892 634.53 105.132 633.986 104.18C633.45 103.22 633.182 102.16 633.182 101C633.182 100.12 633.338 99.3 633.65 98.54C633.962 97.772 634.39 97.1 634.934 96.524C635.486 95.94 636.126 95.484 636.854 95.156C637.582 94.828 638.358 94.664 639.182 94.664C640.102 94.664 640.946 94.856 641.714 95.24C642.482 95.616 643.138 96.14 643.682 96.812C644.226 97.476 644.626 98.244 644.882 99.116C645.138 99.98 645.214 100.9 645.11 101.876H635.858C635.962 102.428 636.162 102.928 636.458 103.376C636.762 103.816 637.146 104.164 637.61 104.42C638.082 104.676 638.606 104.808 639.182 104.816C639.79 104.816 640.342 104.664 640.838 104.36C641.342 104.056 641.754 103.636 642.074 103.1L644.606 103.688C644.126 104.752 643.402 105.624 642.434 106.304C641.466 106.976 640.382 107.312 639.182 107.312ZM635.774 99.968H642.59C642.51 99.392 642.306 98.872 641.978 98.408C641.658 97.936 641.254 97.564 640.766 97.292C640.286 97.012 639.758 96.872 639.182 96.872C638.614 96.872 638.086 97.008 637.598 97.28C637.118 97.552 636.718 97.924 636.398 98.396C636.086 98.86 635.878 99.384 635.774 99.968ZM657.258 107H654.774L650.754 95H653.202L656.034 103.424L658.842 95H661.362L664.17 103.424L666.99 95H669.438L665.43 107H662.922L660.09 98.516L657.258 107ZM675.314 107.312C674.21 107.312 673.202 107.028 672.29 106.46C671.386 105.892 670.662 105.132 670.118 104.18C669.582 103.22 669.314 102.16 669.314 101C669.314 100.12 669.47 99.3 669.782 98.54C670.094 97.772 670.522 97.1 671.066 96.524C671.618 95.94 672.258 95.484 672.986 95.156C673.714 94.828 674.49 94.664 675.314 94.664C676.418 94.664 677.422 94.948 678.326 95.516C679.238 96.084 679.962 96.848 680.498 97.808C681.042 98.768 681.314 99.832 681.314 101C681.314 101.872 681.158 102.688 680.846 103.448C680.534 104.208 680.102 104.88 679.55 105.464C679.006 106.04 678.37 106.492 677.642 106.82C676.922 107.148 676.146 107.312 675.314 107.312ZM675.314 104.816C675.978 104.816 676.574 104.64 677.102 104.288C677.63 103.936 678.046 103.472 678.35 102.896C678.662 102.312 678.818 101.68 678.818 101C678.818 100.304 678.658 99.664 678.338 99.08C678.026 98.496 677.606 98.032 677.078 97.688C676.55 97.336 675.962 97.16 675.314 97.16C674.658 97.16 674.062 97.336 673.526 97.688C672.998 98.04 672.578 98.508 672.266 99.092C671.962 99.676 671.81 100.312 671.81 101C671.81 101.712 671.97 102.356 672.29 102.932C672.61 103.508 673.034 103.968 673.562 104.312C674.098 104.648 674.682 104.816 675.314 104.816ZM682.452 107V95H684.948V96.272C685.364 95.776 685.876 95.384 686.484 95.096C687.092 94.808 687.748 94.664 688.452 94.664C688.9 94.664 689.344 94.724 689.784 94.844L688.788 97.364C688.476 97.244 688.164 97.184 687.852 97.184C687.324 97.184 686.84 97.316 686.4 97.58C685.96 97.836 685.608 98.184 685.344 98.624C685.08 99.064 684.948 99.552 684.948 100.088V107H682.452ZM690.348 107V89H692.844V107H690.348ZM704.099 89H706.595V107H704.099V105.236C703.707 105.86 703.195 106.364 702.563 106.748C701.931 107.124 701.191 107.312 700.343 107.312C699.471 107.312 698.655 107.148 697.895 106.82C697.135 106.492 696.463 106.04 695.879 105.464C695.303 104.88 694.851 104.208 694.523 103.448C694.195 102.688 694.031 101.872 694.031 101C694.031 100.128 694.195 99.312 694.523 98.552C694.851 97.784 695.303 97.112 695.879 96.536C696.463 95.952 697.135 95.496 697.895 95.168C698.655 94.84 699.471 94.676 700.343 94.676C701.191 94.676 701.931 94.868 702.563 95.252C703.195 95.628 703.707 96.124 704.099 96.74V89ZM700.367 104.9C701.071 104.9 701.687 104.728 702.215 104.384C702.743 104.032 703.151 103.56 703.439 102.968C703.735 102.376 703.883 101.72 703.883 101C703.883 100.272 703.735 99.612 703.439 99.02C703.143 98.428 702.731 97.96 702.203 97.616C701.683 97.264 701.071 97.088 700.367 97.088C699.671 97.088 699.035 97.264 698.459 97.616C697.891 97.968 697.435 98.44 697.091 99.032C696.755 99.624 696.587 100.28 696.587 101C696.587 101.728 696.759 102.388 697.103 102.98C697.455 103.564 697.915 104.032 698.483 104.384C699.059 104.728 699.687 104.9 700.367 104.9ZM708.034 96.464V90.2H709.798V96.464H708.034ZM714.399 107.228C713.767 107.188 713.151 107.06 712.551 106.844C711.951 106.628 711.423 106.336 710.967 105.968C710.519 105.592 710.183 105.152 709.959 104.648L712.083 103.736C712.187 103.952 712.367 104.164 712.623 104.372C712.887 104.58 713.195 104.752 713.547 104.888C713.899 105.016 714.267 105.08 714.651 105.08C715.027 105.08 715.375 105.028 715.695 104.924C716.023 104.812 716.291 104.644 716.499 104.42C716.707 104.196 716.811 103.928 716.811 103.616C716.811 103.264 716.691 102.992 716.451 102.8C716.219 102.6 715.927 102.448 715.575 102.344C715.223 102.24 714.871 102.14 714.519 102.044C713.735 101.868 713.015 101.628 712.359 101.324C711.711 101.012 711.195 100.616 710.811 100.136C710.427 99.648 710.235 99.052 710.235 98.348C710.235 97.58 710.443 96.916 710.859 96.356C711.275 95.788 711.819 95.352 712.491 95.048C713.171 94.744 713.895 94.592 714.663 94.592C715.623 94.592 716.503 94.796 717.303 95.204C718.103 95.612 718.715 96.172 719.139 96.884L717.159 98.06C717.039 97.82 716.859 97.604 716.619 97.412C716.379 97.22 716.107 97.068 715.803 96.956C715.499 96.836 715.183 96.768 714.855 96.752C714.447 96.736 714.067 96.784 713.715 96.896C713.371 97 713.095 97.168 712.887 97.4C712.679 97.632 712.575 97.928 712.575 98.288C712.575 98.64 712.699 98.904 712.947 99.08C713.195 99.248 713.507 99.384 713.883 99.488C714.267 99.592 714.659 99.708 715.059 99.836C715.771 100.06 716.439 100.336 717.063 100.664C717.687 100.984 718.191 101.38 718.575 101.852C718.959 102.324 719.143 102.9 719.127 103.58C719.127 104.332 718.899 104.992 718.443 105.56C717.995 106.128 717.411 106.56 716.691 106.856C715.971 107.152 715.207 107.276 714.399 107.228ZM725.348 107V89H727.844V107H725.348ZM735.031 107.312C733.927 107.312 732.919 107.028 732.007 106.46C731.103 105.892 730.379 105.132 729.835 104.18C729.299 103.22 729.031 102.16 729.031 101C729.031 100.12 729.187 99.3 729.499 98.54C729.811 97.772 730.239 97.1 730.783 96.524C731.335 95.94 731.975 95.484 732.703 95.156C733.431 94.828 734.207 94.664 735.031 94.664C735.951 94.664 736.795 94.856 737.563 95.24C738.331 95.616 738.987 96.14 739.531 96.812C740.075 97.476 740.475 98.244 740.731 99.116C740.987 99.98 741.063 100.9 740.959 101.876H731.707C731.811 102.428 732.011 102.928 732.307 103.376C732.611 103.816 732.995 104.164 733.459 104.42C733.931 104.676 734.455 104.808 735.031 104.816C735.639 104.816 736.191 104.664 736.687 104.36C737.191 104.056 737.603 103.636 737.923 103.1L740.455 103.688C739.975 104.752 739.251 105.624 738.283 106.304C737.315 106.976 736.231 107.312 735.031 107.312ZM731.623 99.968H738.439C738.359 99.392 738.155 98.872 737.827 98.408C737.507 97.936 737.103 97.564 736.615 97.292C736.135 97.012 735.607 96.872 735.031 96.872C734.463 96.872 733.935 97.008 733.447 97.28C732.967 97.552 732.567 97.924 732.247 98.396C731.935 98.86 731.727 99.384 731.623 99.968ZM751.459 95H753.955V107H751.447L751.351 105.26C750.999 105.876 750.523 106.372 749.923 106.748C749.323 107.124 748.615 107.312 747.799 107.312C746.919 107.312 746.091 107.148 745.315 106.82C744.539 106.484 743.855 106.02 743.263 105.428C742.679 104.836 742.223 104.156 741.895 103.388C741.567 102.612 741.403 101.78 741.403 100.892C741.403 100.036 741.563 99.232 741.883 98.48C742.203 97.72 742.647 97.056 743.215 96.488C743.783 95.92 744.439 95.476 745.183 95.156C745.935 94.828 746.739 94.664 747.595 94.664C748.467 94.664 749.235 94.864 749.899 95.264C750.571 95.656 751.127 96.16 751.567 96.776L751.459 95ZM747.739 104.9C748.443 104.9 749.059 104.728 749.587 104.384C750.115 104.032 750.523 103.56 750.811 102.968C751.107 102.376 751.255 101.72 751.255 101C751.255 100.272 751.107 99.612 750.811 99.02C750.515 98.428 750.103 97.96 749.575 97.616C749.055 97.264 748.443 97.088 747.739 97.088C747.043 97.088 746.407 97.264 745.831 97.616C745.255 97.968 744.799 98.44 744.463 99.032C744.127 99.624 743.959 100.28 743.959 101C743.959 101.728 744.131 102.388 744.475 102.98C744.827 103.564 745.287 104.032 745.855 104.384C746.431 104.728 747.059 104.9 747.739 104.9ZM764.663 89H767.159V107H764.663V105.236C764.271 105.86 763.759 106.364 763.127 106.748C762.495 107.124 761.755 107.312 760.907 107.312C760.035 107.312 759.219 107.148 758.459 106.82C757.699 106.492 757.027 106.04 756.443 105.464C755.867 104.88 755.415 104.208 755.087 103.448C754.759 102.688 754.595 101.872 754.595 101C754.595 100.128 754.759 99.312 755.087 98.552C755.415 97.784 755.867 97.112 756.443 96.536C757.027 95.952 757.699 95.496 758.459 95.168C759.219 94.84 760.035 94.676 760.907 94.676C761.755 94.676 762.495 94.868 763.127 95.252C763.759 95.628 764.271 96.124 764.663 96.74V89ZM760.931 104.9C761.635 104.9 762.251 104.728 762.779 104.384C763.307 104.032 763.715 103.56 764.003 102.968C764.299 102.376 764.447 101.72 764.447 101C764.447 100.272 764.299 99.612 764.003 99.02C763.707 98.428 763.295 97.96 762.767 97.616C762.247 97.264 761.635 97.088 760.931 97.088C760.235 97.088 759.599 97.264 759.023 97.616C758.455 97.968 757.999 98.44 757.655 99.032C757.319 99.624 757.151 100.28 757.151 101C757.151 101.728 757.323 102.388 757.667 102.98C758.019 103.564 758.479 104.032 759.047 104.384C759.623 104.728 760.251 104.9 760.931 104.9ZM769.234 95H771.73V107H769.234V95ZM770.506 93.26C770.122 93.26 769.802 93.136 769.546 92.888C769.29 92.64 769.162 92.328 769.162 91.952C769.162 91.584 769.29 91.276 769.546 91.028C769.802 90.772 770.118 90.644 770.494 90.644C770.862 90.644 771.174 90.772 771.43 91.028C771.686 91.276 771.814 91.584 771.814 91.952C771.814 92.328 771.686 92.64 771.43 92.888C771.182 93.136 770.874 93.26 770.506 93.26ZM784.507 99.476V107H782.011V100.088C782.011 99.552 781.879 99.064 781.615 98.624C781.359 98.184 781.011 97.836 780.571 97.58C780.139 97.316 779.651 97.184 779.107 97.184C778.579 97.184 778.095 97.316 777.655 97.58C777.215 97.836 776.863 98.184 776.599 98.624C776.335 99.064 776.203 99.552 776.203 100.088V107H773.707V95H776.203V96.272C776.619 95.776 777.131 95.384 777.739 95.096C778.347 94.808 779.003 94.664 779.707 94.664C780.595 94.664 781.403 94.88 782.131 95.312C782.859 95.744 783.435 96.324 783.859 97.052C784.291 97.78 784.507 98.588 784.507 99.476ZM795 95H797.496V107.312C797.496 108.136 797.32 108.896 796.968 109.592C796.624 110.288 796.156 110.888 795.564 111.392C794.972 111.904 794.292 112.3 793.524 112.58C792.764 112.86 791.968 113 791.136 113C790.296 113 789.488 112.82 788.712 112.46C787.936 112.108 787.252 111.628 786.66 111.02C786.076 110.412 785.64 109.724 785.352 108.956L787.644 107.924C787.804 108.42 788.06 108.86 788.412 109.244C788.772 109.628 789.188 109.932 789.66 110.156C790.14 110.38 790.632 110.492 791.136 110.492C791.632 110.492 792.108 110.412 792.564 110.252C793.028 110.1 793.44 109.884 793.8 109.604C794.168 109.324 794.46 108.988 794.676 108.596C794.892 108.204 795 107.776 795 107.312V105.284C794.608 105.892 794.104 106.384 793.488 106.76C792.872 107.128 792.156 107.312 791.34 107.312C790.492 107.312 789.692 107.148 788.94 106.82C788.188 106.492 787.528 106.04 786.96 105.464C786.392 104.88 785.948 104.208 785.628 103.448C785.308 102.688 785.148 101.872 785.148 101C785.148 100.128 785.308 99.312 785.628 98.552C785.948 97.784 786.392 97.112 786.96 96.536C787.528 95.952 788.188 95.496 788.94 95.168C789.692 94.84 790.492 94.676 791.34 94.676C792.156 94.676 792.872 94.864 793.488 95.24C794.104 95.608 794.608 96.1 795 96.716V95ZM791.364 104.9C792.06 104.9 792.668 104.724 793.188 104.372C793.708 104.012 794.112 103.536 794.4 102.944C794.688 102.352 794.832 101.704 794.832 101C794.832 100.28 794.684 99.628 794.388 99.044C794.1 98.452 793.696 97.98 793.176 97.628C792.656 97.268 792.052 97.088 791.364 97.088C790.692 97.088 790.076 97.264 789.516 97.616C788.964 97.968 788.524 98.44 788.196 99.032C787.868 99.624 787.704 100.28 787.704 101C787.704 101.72 787.868 102.376 788.196 102.968C788.532 103.56 788.976 104.032 789.528 104.384C790.088 104.728 790.7 104.9 791.364 104.9ZM812.378 103.592L814.61 104.804C814.066 105.564 813.374 106.172 812.534 106.628C811.702 107.084 810.798 107.312 809.822 107.312C808.718 107.312 807.71 107.028 806.798 106.46C805.894 105.892 805.17 105.132 804.626 104.18C804.09 103.22 803.822 102.16 803.822 101C803.822 100.12 803.978 99.3 804.29 98.54C804.602 97.772 805.03 97.1 805.574 96.524C806.126 95.94 806.766 95.484 807.494 95.156C808.222 94.828 808.998 94.664 809.822 94.664C810.798 94.664 811.702 94.892 812.534 95.348C813.374 95.804 814.066 96.416 814.61 97.184L812.378 98.396C812.042 97.996 811.65 97.692 811.202 97.484C810.754 97.268 810.294 97.16 809.822 97.16C809.166 97.16 808.57 97.34 808.034 97.7C807.506 98.052 807.086 98.52 806.774 99.104C806.47 99.68 806.318 100.312 806.318 101C806.318 101.68 806.474 102.312 806.786 102.896C807.098 103.472 807.518 103.936 808.046 104.288C808.582 104.64 809.174 104.816 809.822 104.816C810.318 104.816 810.79 104.704 811.238 104.48C811.686 104.256 812.066 103.96 812.378 103.592ZM820.951 107.312C819.847 107.312 818.839 107.028 817.927 106.46C817.023 105.892 816.299 105.132 815.755 104.18C815.219 103.22 814.951 102.16 814.951 101C814.951 100.12 815.107 99.3 815.419 98.54C815.731 97.772 816.159 97.1 816.703 96.524C817.255 95.94 817.895 95.484 818.623 95.156C819.351 94.828 820.127 94.664 820.951 94.664C822.055 94.664 823.059 94.948 823.963 95.516C824.875 96.084 825.599 96.848 826.135 97.808C826.679 98.768 826.951 99.832 826.951 101C826.951 101.872 826.795 102.688 826.483 103.448C826.171 104.208 825.739 104.88 825.187 105.464C824.643 106.04 824.007 106.492 823.279 106.82C822.559 107.148 821.783 107.312 820.951 107.312ZM820.951 104.816C821.615 104.816 822.211 104.64 822.739 104.288C823.267 103.936 823.683 103.472 823.987 102.896C824.299 102.312 824.455 101.68 824.455 101C824.455 100.304 824.295 99.664 823.975 99.08C823.663 98.496 823.243 98.032 822.715 97.688C822.187 97.336 821.599 97.16 820.951 97.16C820.295 97.16 819.699 97.336 819.163 97.688C818.635 98.04 818.215 98.508 817.903 99.092C817.599 99.676 817.447 100.312 817.447 101C817.447 101.712 817.607 102.356 817.927 102.932C818.247 103.508 818.671 103.968 819.199 104.312C819.735 104.648 820.319 104.816 820.951 104.816ZM828.09 107V95H830.586V96.272C831.002 95.776 831.51 95.384 832.11 95.096C832.718 94.808 833.374 94.664 834.078 94.664C834.934 94.664 835.722 94.872 836.442 95.288C837.162 95.696 837.734 96.24 838.158 96.92C838.582 96.24 839.146 95.696 839.85 95.288C840.562 94.872 841.346 94.664 842.202 94.664C843.09 94.664 843.898 94.88 844.626 95.312C845.354 95.744 845.934 96.324 846.366 97.052C846.798 97.78 847.014 98.588 847.014 99.476V107H844.518V100.112C844.518 99.584 844.39 99.1 844.134 98.66C843.878 98.22 843.534 97.864 843.102 97.592C842.67 97.32 842.19 97.184 841.662 97.184C841.134 97.184 840.654 97.312 840.222 97.568C839.79 97.824 839.446 98.172 839.19 98.612C838.934 99.052 838.806 99.552 838.806 100.112V107H836.31V100.112C836.31 99.552 836.182 99.052 835.926 98.612C835.67 98.172 835.322 97.824 834.882 97.568C834.45 97.312 833.97 97.184 833.442 97.184C832.922 97.184 832.442 97.32 832.002 97.592C831.57 97.864 831.226 98.22 830.97 98.66C830.714 99.1 830.586 99.584 830.586 100.112V107H828.09ZM851.114 113H848.618V95H851.114V96.764C851.514 96.148 852.026 95.648 852.65 95.264C853.274 94.88 854.01 94.688 854.858 94.688C855.73 94.688 856.546 94.852 857.306 95.18C858.074 95.508 858.746 95.964 859.322 96.548C859.898 97.124 860.35 97.792 860.678 98.552C861.006 99.312 861.17 100.128 861.17 101C861.17 101.872 861.006 102.692 860.678 103.46C860.35 104.228 859.898 104.904 859.322 105.488C858.746 106.064 858.074 106.516 857.306 106.844C856.546 107.172 855.73 107.336 854.858 107.336C854.01 107.336 853.274 107.144 852.65 106.76C852.026 106.368 851.514 105.868 851.114 105.26V113ZM854.834 97.1C854.138 97.1 853.526 97.276 852.998 97.628C852.47 97.98 852.058 98.452 851.762 99.044C851.466 99.628 851.318 100.28 851.318 101C851.318 101.72 851.466 102.376 851.762 102.968C852.058 103.56 852.47 104.032 852.998 104.384C853.526 104.736 854.138 104.912 854.834 104.912C855.522 104.912 856.154 104.74 856.73 104.396C857.306 104.044 857.766 103.572 858.11 102.98C858.454 102.388 858.626 101.728 858.626 101C858.626 100.288 858.454 99.636 858.11 99.044C857.774 98.452 857.318 97.98 856.742 97.628C856.166 97.276 855.53 97.1 854.834 97.1ZM871.638 95H874.134V107H871.626L871.53 105.26C871.178 105.876 870.702 106.372 870.102 106.748C869.502 107.124 868.794 107.312 867.978 107.312C867.098 107.312 866.27 107.148 865.494 106.82C864.718 106.484 864.034 106.02 863.442 105.428C862.858 104.836 862.402 104.156 862.074 103.388C861.746 102.612 861.582 101.78 861.582 100.892C861.582 100.036 861.742 99.232 862.062 98.48C862.382 97.72 862.826 97.056 863.394 96.488C863.962 95.92 864.618 95.476 865.362 95.156C866.114 94.828 866.918 94.664 867.774 94.664C868.646 94.664 869.414 94.864 870.078 95.264C870.75 95.656 871.306 96.16 871.746 96.776L871.638 95ZM867.918 104.9C868.622 104.9 869.238 104.728 869.766 104.384C870.294 104.032 870.702 103.56 870.99 102.968C871.286 102.376 871.434 101.72 871.434 101C871.434 100.272 871.286 99.612 870.99 99.02C870.694 98.428 870.282 97.96 869.754 97.616C869.234 97.264 868.622 97.088 867.918 97.088C867.222 97.088 866.586 97.264 866.01 97.616C865.434 97.968 864.978 98.44 864.642 99.032C864.306 99.624 864.138 100.28 864.138 101C864.138 101.728 864.31 102.388 864.654 102.98C865.006 103.564 865.466 104.032 866.034 104.384C866.61 104.728 867.238 104.9 867.918 104.9ZM886.529 99.476V107H884.033V100.088C884.033 99.552 883.901 99.064 883.637 98.624C883.381 98.184 883.033 97.836 882.593 97.58C882.161 97.316 881.673 97.184 881.129 97.184C880.601 97.184 880.117 97.316 879.677 97.58C879.237 97.836 878.885 98.184 878.621 98.624C878.357 99.064 878.225 99.552 878.225 100.088V107H875.729V95H878.225V96.272C878.641 95.776 879.153 95.384 879.761 95.096C880.369 94.808 881.025 94.664 881.729 94.664C882.617 94.664 883.425 94.88 884.153 95.312C884.881 95.744 885.457 96.324 885.881 97.052C886.313 97.78 886.529 98.588 886.529 99.476ZM888.124 95H890.62V107H888.124V95ZM889.396 93.26C889.012 93.26 888.692 93.136 888.436 92.888C888.18 92.64 888.052 92.328 888.052 91.952C888.052 91.584 888.18 91.276 888.436 91.028C888.692 90.772 889.008 90.644 889.384 90.644C889.752 90.644 890.064 90.772 890.32 91.028C890.576 91.276 890.704 91.584 890.704 91.952C890.704 92.328 890.576 92.64 890.32 92.888C890.072 93.136 889.764 93.26 889.396 93.26ZM897.761 107.312C896.657 107.312 895.649 107.028 894.737 106.46C893.833 105.892 893.109 105.132 892.565 104.18C892.029 103.22 891.761 102.16 891.761 101C891.761 100.12 891.917 99.3 892.229 98.54C892.541 97.772 892.969 97.1 893.513 96.524C894.065 95.94 894.705 95.484 895.433 95.156C896.161 94.828 896.937 94.664 897.761 94.664C898.681 94.664 899.525 94.856 900.293 95.24C901.061 95.616 901.717 96.14 902.261 96.812C902.805 97.476 903.205 98.244 903.461 99.116C903.717 99.98 903.793 100.9 903.689 101.876H894.437C894.541 102.428 894.741 102.928 895.037 103.376C895.341 103.816 895.725 104.164 896.189 104.42C896.661 104.676 897.185 104.808 897.761 104.816C898.369 104.816 898.921 104.664 899.417 104.36C899.921 104.056 900.333 103.636 900.653 103.1L903.185 103.688C902.705 104.752 901.981 105.624 901.013 106.304C900.045 106.976 898.961 107.312 897.761 107.312ZM894.353 99.968H901.169C901.089 99.392 900.885 98.872 900.557 98.408C900.237 97.936 899.833 97.564 899.345 97.292C898.865 97.012 898.337 96.872 897.761 96.872C897.193 96.872 896.665 97.008 896.177 97.28C895.697 97.552 895.297 97.924 894.977 98.396C894.665 98.86 894.457 99.384 894.353 99.968ZM908.523 107.228C907.891 107.188 907.275 107.06 906.675 106.844C906.075 106.628 905.547 106.336 905.091 105.968C904.643 105.592 904.307 105.152 904.083 104.648L906.207 103.736C906.311 103.952 906.491 104.164 906.747 104.372C907.011 104.58 907.319 104.752 907.671 104.888C908.023 105.016 908.391 105.08 908.775 105.08C909.151 105.08 909.499 105.028 909.819 104.924C910.147 104.812 910.415 104.644 910.623 104.42C910.831 104.196 910.935 103.928 910.935 103.616C910.935 103.264 910.815 102.992 910.575 102.8C910.343 102.6 910.051 102.448 909.699 102.344C909.347 102.24 908.995 102.14 908.643 102.044C907.859 101.868 907.139 101.628 906.483 101.324C905.835 101.012 905.319 100.616 904.935 100.136C904.551 99.648 904.359 99.052 904.359 98.348C904.359 97.58 904.567 96.916 904.983 96.356C905.399 95.788 905.943 95.352 906.615 95.048C907.295 94.744 908.019 94.592 908.787 94.592C909.747 94.592 910.627 94.796 911.427 95.204C912.227 95.612 912.839 96.172 913.263 96.884L911.283 98.06C911.163 97.82 910.983 97.604 910.743 97.412C910.503 97.22 910.231 97.068 909.927 96.956C909.623 96.836 909.307 96.768 908.979 96.752C908.571 96.736 908.191 96.784 907.839 96.896C907.495 97 907.219 97.168 907.011 97.4C906.803 97.632 906.699 97.928 906.699 98.288C906.699 98.64 906.823 98.904 907.071 99.08C907.319 99.248 907.631 99.384 908.007 99.488C908.391 99.592 908.783 99.708 909.183 99.836C909.895 100.06 910.563 100.336 911.187 100.664C911.811 100.984 912.315 101.38 912.699 101.852C913.083 102.324 913.267 102.9 913.251 103.58C913.251 104.332 913.023 104.992 912.567 105.56C912.119 106.128 911.535 106.56 910.815 106.856C910.095 107.152 909.331 107.276 908.523 107.228Z" fill="white"/>
<g clip-path="url(#clip0_22_1190)">
<path d="M386.594 192.387C384.558 192.387 382.822 192.016 381.388 191.276C379.976 190.536 378.761 189.541 377.743 188.291L380.45 185.757C381.307 186.798 382.244 187.585 383.262 188.117C384.303 188.65 385.483 188.916 386.802 188.916C388.353 188.916 389.521 188.569 390.308 187.874C391.095 187.18 391.488 186.243 391.488 185.063C391.488 184.114 391.211 183.362 390.655 182.807C390.1 182.251 389.116 181.835 387.705 181.557L385.553 181.175C383.192 180.736 381.422 179.961 380.242 178.85C379.062 177.739 378.472 176.212 378.472 174.268C378.472 173.204 378.668 172.243 379.062 171.387C379.479 170.508 380.045 169.779 380.763 169.2C381.503 168.599 382.394 168.136 383.436 167.812C384.477 167.488 385.646 167.326 386.941 167.326C388.769 167.326 390.354 167.65 391.696 168.298C393.039 168.923 394.184 169.837 395.133 171.04L392.39 173.47C391.766 172.66 391.002 172.012 390.1 171.526C389.197 171.04 388.075 170.797 386.733 170.797C385.345 170.797 384.269 171.075 383.505 171.63C382.741 172.186 382.36 172.995 382.36 174.06C382.36 175.078 382.672 175.842 383.297 176.351C383.922 176.837 384.893 177.207 386.212 177.461L388.364 177.913C390.794 178.375 392.564 179.162 393.675 180.273C394.809 181.384 395.376 182.911 395.376 184.855C395.376 185.988 395.179 187.018 394.785 187.944C394.392 188.869 393.814 189.668 393.05 190.339C392.31 190.987 391.396 191.496 390.308 191.866C389.221 192.213 387.983 192.387 386.594 192.387Z" fill="white"/>
<path d="M405.048 192.387C403.752 192.387 402.595 192.167 401.577 191.727C400.559 191.288 399.703 190.663 399.008 189.853C398.314 189.02 397.782 188.025 397.412 186.868C397.042 185.688 396.856 184.38 396.856 182.946C396.856 181.511 397.042 180.215 397.412 179.058C397.782 177.878 398.314 176.883 399.008 176.073C399.703 175.24 400.559 174.604 401.577 174.164C402.595 173.724 403.752 173.504 405.048 173.504C406.853 173.504 408.334 173.909 409.491 174.719C410.648 175.529 411.492 176.605 412.024 177.947L408.901 179.405C408.646 178.572 408.195 177.913 407.547 177.427C406.922 176.918 406.089 176.663 405.048 176.663C403.659 176.663 402.607 177.103 401.889 177.982C401.195 178.838 400.848 179.961 400.848 181.349V184.577C400.848 185.965 401.195 187.099 401.889 187.979C402.607 188.835 403.659 189.263 405.048 189.263C406.159 189.263 407.038 188.997 407.686 188.464C408.357 187.909 408.889 187.18 409.282 186.278L412.163 187.805C411.562 189.286 410.659 190.42 409.456 191.207C408.253 191.993 406.784 192.387 405.048 192.387Z" fill="white"/>
<path d="M427.254 191.97C426.259 191.97 425.495 191.692 424.963 191.137C424.431 190.559 424.107 189.83 423.991 188.95H423.818C423.471 190.084 422.834 190.94 421.909 191.519C420.983 192.097 419.861 192.387 418.542 192.387C416.668 192.387 415.221 191.901 414.203 190.929C413.208 189.957 412.711 188.65 412.711 187.007C412.711 185.202 413.359 183.848 414.654 182.946C415.973 182.043 417.894 181.592 420.416 181.592H423.679V180.065C423.679 178.954 423.378 178.098 422.777 177.496C422.175 176.894 421.238 176.594 419.965 176.594C418.9 176.594 418.033 176.825 417.362 177.288C416.691 177.751 416.124 178.341 415.661 179.058L413.405 177.01C414.007 175.992 414.851 175.159 415.938 174.511C417.026 173.84 418.449 173.504 420.208 173.504C422.545 173.504 424.338 174.048 425.588 175.136C426.838 176.223 427.463 177.785 427.463 179.822V188.881H429.372V191.97H427.254ZM419.618 189.506C420.798 189.506 421.77 189.251 422.533 188.742C423.297 188.21 423.679 187.504 423.679 186.625V184.022H420.486C417.871 184.022 416.563 184.831 416.563 186.451V187.076C416.563 187.886 416.829 188.499 417.362 188.916C417.917 189.309 418.669 189.506 419.618 189.506Z" fill="white"/>
<path d="M435.197 191.97C433.901 191.97 432.929 191.646 432.281 190.998C431.656 190.327 431.344 189.402 431.344 188.222V166.285H435.127V188.881H437.626V191.97H435.197Z" fill="white"/>
<path d="M446.587 192.387C445.291 192.387 444.134 192.167 443.116 191.727C442.098 191.288 441.23 190.663 440.513 189.853C439.796 189.02 439.24 188.025 438.847 186.868C438.476 185.688 438.292 184.38 438.292 182.946C438.292 181.511 438.476 180.215 438.847 179.058C439.24 177.878 439.796 176.883 440.513 176.073C441.23 175.24 442.098 174.604 443.116 174.164C444.134 173.724 445.291 173.504 446.587 173.504C447.906 173.504 449.063 173.736 450.058 174.199C451.076 174.661 451.921 175.309 452.592 176.142C453.263 176.952 453.76 177.901 454.084 178.989C454.431 180.076 454.605 181.245 454.605 182.494V183.917H442.213V184.508C442.213 185.896 442.619 187.041 443.429 187.944C444.262 188.823 445.441 189.263 446.969 189.263C448.08 189.263 449.017 189.02 449.78 188.534C450.544 188.048 451.192 187.388 451.724 186.555L453.945 188.742C453.274 189.853 452.302 190.744 451.03 191.415C449.757 192.063 448.276 192.387 446.587 192.387ZM446.587 176.455C445.939 176.455 445.337 176.57 444.782 176.802C444.25 177.033 443.787 177.357 443.394 177.774C443.024 178.19 442.734 178.688 442.526 179.266C442.318 179.845 442.213 180.481 442.213 181.175V181.418H450.613V181.071C450.613 179.683 450.255 178.572 449.537 177.739C448.82 176.883 447.837 176.455 446.587 176.455Z" fill="white"/>
<path d="M355.091 164.21H340.05V194.81H369.613V178.732H366.501V191.698H343.162V167.322H355.091V164.21Z" fill="white"/>
<path d="M358.721 167.322H364.3L350.423 181.2V175.62H347.311V186.512H358.202V183.4H352.623L366.501 169.523V175.102H369.613V164.21H358.721V167.322Z" fill="white"/>
</g>
<path d="M592.556 192.363C589.609 192.363 587.31 191.548 585.659 189.917C584.029 188.286 583.213 185.958 583.213 182.932V171.378H587.988V182.755C587.988 186.449 589.521 188.296 592.586 188.296C594.079 188.296 595.219 187.854 596.005 186.97C596.791 186.066 597.184 184.661 597.184 182.755V171.378H601.899V182.932C601.899 185.958 601.074 188.286 599.424 189.917C597.793 191.548 595.504 192.363 592.556 192.363Z" fill="white"/>
<path d="M604.23 181.871H612.571V185.555H604.23V181.871Z" fill="white"/>
<path d="M618.248 175.269H611.646V171.378H629.625V175.269H623.023V192.01H618.248V175.269Z" fill="white"/>
<path d="M646.025 176.153V192.01H641.664V190.123C641.054 190.811 640.327 191.342 639.482 191.715C638.637 192.069 637.724 192.246 636.741 192.246C634.659 192.246 633.008 191.646 631.79 190.447C630.572 189.249 629.962 187.471 629.962 185.113V176.153H634.56V184.435C634.56 186.989 635.631 188.267 637.773 188.267C638.873 188.267 639.757 187.913 640.425 187.205C641.093 186.478 641.427 185.408 641.427 183.993V176.153H646.025Z" fill="white"/>
<path d="M653.203 178.245C653.753 177.479 654.49 176.9 655.413 176.507C656.357 176.114 657.437 175.917 658.655 175.917V180.161C658.145 180.122 657.801 180.102 657.624 180.102C656.308 180.102 655.276 180.476 654.529 181.222C653.783 181.949 653.409 183.05 653.409 184.523V192.01H648.812V176.153H653.203V178.245Z" fill="white"/>
<path d="M669.554 175.917C671.519 175.917 673.1 176.507 674.299 177.685C675.517 178.864 676.126 180.613 676.126 182.932V192.01H671.528V183.639C671.528 182.382 671.253 181.448 670.703 180.839C670.153 180.21 669.357 179.896 668.316 179.896C667.157 179.896 666.233 180.26 665.545 180.987C664.857 181.694 664.514 182.755 664.514 184.17V192.01H659.916V176.153H664.307V178.01C664.917 177.342 665.673 176.831 666.577 176.477C667.481 176.104 668.473 175.917 669.554 175.917Z" fill="white"/>
<path fill-rule="evenodd" clip-rule="evenodd" d="M562.672 166.016C563.456 165.232 564.728 165.232 565.512 166.016L572.854 173.359L565.478 180.4C564.676 181.165 563.405 181.136 562.64 180.334C561.874 179.531 561.904 178.261 562.706 177.495L564.97 175.333H560.076C556.158 175.333 552.982 178.509 552.982 182.427C552.982 186.345 556.158 189.522 560.076 189.522H569.982C571.09 189.522 571.99 190.421 571.99 191.53C571.99 192.638 571.09 193.537 569.982 193.537H560.076C553.941 193.537 548.967 188.563 548.967 182.427C548.967 176.292 553.941 171.318 560.076 171.318H565.134L562.672 168.856C561.888 168.071 561.888 166.8 562.672 166.016Z" fill="white"/>
<path fill-rule="evenodd" clip-rule="evenodd" d="M789.198 169.106C787.578 168.298 785.681 168.26 784.03 169.002L774.093 173.469C773.429 173.768 773.001 174.429 773.001 175.158V176.336C773.001 177.038 773.398 177.679 774.026 177.993L782.059 181.997C782.579 182.256 783.191 182.256 783.711 181.997L791.814 177.958C793.237 177.248 794.91 178.283 794.91 179.873V181.382C794.91 182.194 794.451 182.936 793.724 183.298L783.84 188.225C783.239 188.525 782.531 188.525 781.93 188.225L774.23 184.387C773.665 184.105 773.001 184.516 773.001 185.147C773.001 185.469 773.183 185.764 773.472 185.908L782.069 190.194C782.585 190.452 783.193 190.453 783.711 190.199L790.458 186.886C790.989 186.626 791.63 186.845 791.89 187.375C792.151 187.906 791.932 188.547 791.401 188.808L783.832 192.524C783.233 192.818 782.531 192.816 781.934 192.518L772.046 187.589C771.32 187.227 770.861 186.485 770.861 185.673V183.774C770.861 182.184 772.533 181.149 773.956 181.858L782.059 185.898C782.579 186.157 783.191 186.157 783.711 185.898L792.395 181.569C792.624 181.454 792.769 181.22 792.769 180.964C792.769 180.463 792.241 180.136 791.793 180.36L783.84 184.325C783.239 184.624 782.531 184.624 781.93 184.325L772.046 179.397C771.32 179.035 770.861 178.293 770.861 177.481V173.96C770.861 173.117 771.355 172.353 772.123 172.008L783.153 167.05C785.389 166.045 787.959 166.096 790.153 167.19C794.156 169.186 794.073 174.926 790.013 176.805L783.806 179.677C783.211 179.952 782.522 179.94 781.937 179.643L776.067 176.66C775.54 176.392 775.33 175.748 775.598 175.221C775.866 174.694 776.51 174.484 777.037 174.752L782.106 177.327C782.612 177.584 783.208 177.595 783.722 177.357L789.114 174.862C791.545 173.737 791.595 170.301 789.198 169.106Z" fill="white"/>
<path d="M815.169 173.776V178.039H820.893V180.743H815.169V185.249H821.624V188.027H811.758V170.999H821.624V173.776H815.169Z" fill="white"/>
<path d="M827.159 176.504C827.597 175.855 828.198 175.327 828.962 174.921C829.741 174.515 830.626 174.312 831.617 174.312C832.77 174.312 833.809 174.596 834.735 175.165C835.677 175.733 836.416 176.545 836.952 177.601C837.504 178.64 837.78 179.85 837.78 181.23C837.78 182.61 837.504 183.837 836.952 184.908C836.416 185.964 835.677 186.784 834.735 187.369C833.809 187.953 832.77 188.246 831.617 188.246C830.61 188.246 829.725 188.051 828.962 187.661C828.215 187.255 827.614 186.735 827.159 186.102V188.027H823.749V170H827.159V176.504ZM834.296 181.23C834.296 180.418 834.126 179.72 833.785 179.135C833.46 178.534 833.022 178.08 832.469 177.771C831.933 177.463 831.349 177.308 830.716 177.308C830.098 177.308 829.514 177.471 828.962 177.795C828.426 178.104 827.987 178.559 827.646 179.16C827.322 179.76 827.159 180.467 827.159 181.279C827.159 182.091 827.322 182.797 827.646 183.398C827.987 183.999 828.426 184.462 828.962 184.787C829.514 185.095 830.098 185.249 830.716 185.249C831.349 185.249 831.933 185.087 832.469 184.762C833.022 184.437 833.46 183.975 833.785 183.374C834.126 182.773 834.296 182.058 834.296 181.23Z" fill="white"/>
<path d="M845.276 188.246C843.977 188.246 842.808 187.961 841.768 187.393C840.729 186.808 839.909 185.989 839.308 184.933C838.723 183.877 838.431 182.659 838.431 181.279C838.431 179.898 838.732 178.681 839.333 177.625C839.949 176.569 840.786 175.757 841.841 175.189C842.897 174.604 844.074 174.312 845.373 174.312C846.673 174.312 847.85 174.604 848.906 175.189C849.961 175.757 850.79 176.569 851.39 177.625C852.008 178.681 852.316 179.898 852.316 181.279C852.316 182.659 851.999 183.877 851.366 184.933C850.749 185.989 849.905 186.808 848.833 187.393C847.777 187.961 846.592 188.246 845.276 188.246ZM845.276 185.274C845.893 185.274 846.47 185.128 847.006 184.835C847.558 184.527 847.996 184.072 848.321 183.471C848.646 182.87 848.808 182.14 848.808 181.279C848.808 179.996 848.467 179.013 847.785 178.331C847.119 177.633 846.299 177.284 845.325 177.284C844.35 177.284 843.531 177.633 842.864 178.331C842.215 179.013 841.89 179.996 841.89 181.279C841.89 182.562 842.207 183.552 842.84 184.251C843.49 184.933 844.302 185.274 845.276 185.274Z" fill="white"/>
<path d="M859.836 188.246C858.536 188.246 857.367 187.961 856.328 187.393C855.289 186.808 854.468 185.989 853.868 184.933C853.283 183.877 852.991 182.659 852.991 181.279C852.991 179.898 853.291 178.681 853.892 177.625C854.509 176.569 855.346 175.757 856.401 175.189C857.457 174.604 858.634 174.312 859.933 174.312C861.233 174.312 862.41 174.604 863.465 175.189C864.521 175.757 865.349 176.569 865.95 177.625C866.567 178.681 866.876 179.898 866.876 181.279C866.876 182.659 866.559 183.877 865.926 184.933C865.309 185.989 864.464 186.808 863.392 187.393C862.337 187.961 861.151 188.246 859.836 188.246ZM859.836 185.274C860.453 185.274 861.03 185.128 861.565 184.835C862.118 184.527 862.556 184.072 862.881 183.471C863.205 182.87 863.368 182.14 863.368 181.279C863.368 179.996 863.027 179.013 862.345 178.331C861.679 177.633 860.859 177.284 859.885 177.284C858.91 177.284 858.09 177.633 857.424 178.331C856.775 179.013 856.45 179.996 856.45 181.279C856.45 182.562 856.766 183.552 857.4 184.251C858.05 184.933 858.862 185.274 859.836 185.274Z" fill="white"/>
<path d="M876.393 188.027L871.813 182.278V188.027H868.403V170H871.813V180.256L876.344 174.531H880.778L874.834 181.303L880.826 188.027H876.393Z" fill="white"/>
<path d="M886.818 188.246C885.714 188.246 884.724 188.051 883.847 187.661C882.97 187.255 882.271 186.711 881.752 186.029C881.248 185.347 880.972 184.592 880.923 183.763H884.358C884.423 184.283 884.675 184.714 885.113 185.055C885.568 185.396 886.128 185.566 886.794 185.566C887.444 185.566 887.947 185.436 888.304 185.176C888.678 184.917 888.865 184.584 888.865 184.178C888.865 183.739 888.637 183.414 888.182 183.203C887.744 182.976 887.038 182.732 886.063 182.473C885.057 182.229 884.228 181.977 883.579 181.717C882.945 181.458 882.393 181.06 881.922 180.524C881.468 179.988 881.24 179.265 881.24 178.356C881.24 177.609 881.451 176.927 881.874 176.309C882.312 175.692 882.929 175.205 883.725 174.848C884.537 174.491 885.487 174.312 886.575 174.312C888.182 174.312 889.466 174.718 890.424 175.53C891.382 176.326 891.91 177.406 892.007 178.77H888.743C888.694 178.234 888.467 177.812 888.061 177.503C887.671 177.178 887.143 177.016 886.477 177.016C885.86 177.016 885.381 177.13 885.04 177.357C884.715 177.584 884.553 177.901 884.553 178.307C884.553 178.762 884.78 179.111 885.235 179.354C885.69 179.582 886.396 179.817 887.355 180.061C888.329 180.305 889.133 180.556 889.766 180.816C890.399 181.076 890.943 181.482 891.398 182.034C891.869 182.57 892.113 183.284 892.129 184.178C892.129 184.957 891.91 185.656 891.471 186.273C891.049 186.89 890.432 187.377 889.62 187.734C888.824 188.075 887.89 188.246 886.818 188.246Z" fill="white"/>
<path d="M1023.68 166.213H1029.08L1023.2 191.52H1013.71L1007.83 166.213H1013.23L1017.62 187.054H1019.29L1023.68 166.213Z" fill="white"/>
<path d="M1034.22 184.337C1034.25 185.479 1034.55 186.31 1035.12 186.831C1035.71 187.327 1036.56 187.575 1037.65 187.575C1039.96 187.575 1042.02 187.501 1043.83 187.352L1044.87 187.24L1044.94 190.925C1042.09 191.619 1039.51 191.967 1037.2 191.967C1034.4 191.967 1032.36 191.222 1031.1 189.734C1029.83 188.245 1029.2 185.826 1029.2 182.476C1029.2 175.802 1031.94 172.465 1037.42 172.465C1042.83 172.465 1045.54 175.269 1045.54 180.876L1045.17 184.337H1034.22ZM1040.63 180.541C1040.63 179.053 1040.39 178.023 1039.92 177.452C1039.45 176.857 1038.62 176.559 1037.42 176.559C1036.26 176.559 1035.43 176.869 1034.93 177.489C1034.46 178.085 1034.21 179.102 1034.19 180.541H1040.63Z" fill="white"/>
<path d="M1048.36 191.52V172.912H1053.31V174.884C1055.39 173.644 1057.38 172.837 1059.26 172.465V177.489C1057.25 177.911 1055.53 178.345 1054.09 178.792L1053.34 179.053V191.52H1048.36Z" fill="white"/>
<path d="M1071.77 177.155H1067.19V184.784C1067.19 185.528 1067.2 186.062 1067.23 186.384C1067.28 186.682 1067.42 186.942 1067.64 187.166C1067.89 187.389 1068.26 187.501 1068.76 187.501L1071.58 187.426L1071.81 191.409C1070.14 191.781 1068.88 191.967 1068.01 191.967C1065.78 191.967 1064.25 191.47 1063.43 190.478C1062.61 189.461 1062.21 187.6 1062.21 184.896V177.155H1060.01V172.912H1062.21V167.739H1067.19V172.912H1071.77V177.155Z" fill="white"/>
<path d="M1074.27 191.52V172.912H1079.26V191.52H1074.27ZM1074.27 170.53V165.469H1079.26V170.53H1074.27Z" fill="white"/>
<path d="M1099.98 193.827C1099.98 195.961 1099.16 197.537 1097.53 198.554C1095.89 199.571 1093.67 200.08 1090.86 200.08C1088.09 200.08 1085.94 199.708 1084.43 198.963C1082.94 198.219 1082.19 196.867 1082.19 194.907C1082.19 193.344 1083.09 191.867 1084.87 190.478C1083.95 189.858 1083.5 188.915 1083.5 187.65C1083.5 187.153 1083.87 186.335 1084.61 185.193L1084.95 184.672C1083.26 183.456 1082.42 181.67 1082.42 179.313C1082.42 176.931 1083.12 175.207 1084.54 174.14C1085.98 173.073 1087.87 172.54 1090.23 172.54C1091.3 172.54 1092.35 172.664 1093.4 172.912L1093.99 173.023L1099.98 172.837V176.82L1097.19 176.596C1097.74 177.44 1098.01 178.283 1098.01 179.127C1098.01 181.608 1097.38 183.32 1096.11 184.263C1094.85 185.206 1092.86 185.677 1090.16 185.677C1089.59 185.677 1089.08 185.627 1088.63 185.528C1088.38 186.173 1088.26 186.707 1088.26 187.129C1088.26 187.525 1088.47 187.798 1088.89 187.947C1089.31 188.096 1090.31 188.183 1091.87 188.208C1095 188.233 1097.13 188.654 1098.27 189.473C1099.41 190.267 1099.98 191.719 1099.98 193.827ZM1087.11 194.386C1087.11 195.452 1088.41 195.986 1091.01 195.986C1093.64 195.986 1094.96 195.366 1094.96 194.125C1094.96 193.455 1094.74 193.021 1094.29 192.823C1093.84 192.649 1092.9 192.55 1091.46 192.525L1088.11 192.265C1087.44 192.934 1087.11 193.641 1087.11 194.386ZM1087.4 179.164C1087.4 180.975 1088.35 181.881 1090.23 181.881C1092.14 181.881 1093.1 180.975 1093.1 179.164C1093.1 177.328 1092.14 176.41 1090.23 176.41C1088.35 176.41 1087.4 177.328 1087.4 179.164Z" fill="white"/>
<path d="M1103.26 175.033C1104.58 173.321 1106.77 172.465 1109.85 172.465C1112.93 172.465 1115.12 173.321 1116.44 175.033C1117.75 176.72 1118.41 179.102 1118.41 182.179C1118.41 188.704 1115.56 191.967 1109.85 191.967C1104.15 191.967 1101.29 188.704 1101.29 182.179C1101.29 179.102 1101.95 176.72 1103.26 175.033ZM1107.1 186.384C1107.62 187.277 1108.54 187.724 1109.85 187.724C1111.17 187.724 1112.07 187.277 1112.57 186.384C1113.09 185.491 1113.35 184.089 1113.35 182.179C1113.35 180.268 1113.09 178.879 1112.57 178.01C1112.07 177.142 1111.17 176.708 1109.85 176.708C1108.54 176.708 1107.62 177.142 1107.1 178.01C1106.6 178.879 1106.35 180.268 1106.35 182.179C1106.35 184.089 1106.6 185.491 1107.1 186.384Z" fill="white"/>
<path fill-rule="evenodd" clip-rule="evenodd" d="M988.913 164.793C986.685 163.87 984.274 163.472 981.867 163.63C979.459 163.788 977.121 164.497 975.032 165.703L972.924 166.92L970.49 162.705L972.598 161.488C975.334 159.908 978.396 158.979 981.548 158.773C984.7 158.566 987.858 159.087 990.776 160.296C993.695 161.505 996.296 163.369 998.379 165.744C1000.46 168.119 1001.97 170.941 1002.79 173.993C1003.61 177.044 1003.71 180.242 1003.09 183.341C1002.48 186.439 1001.16 189.354 999.233 191.86C997.31 194.366 994.837 196.396 992.004 197.793C989.171 199.19 985.516 199.917 982.895 199.917C980.274 199.917 978.743 199.524 976.733 198.691C974.78 197.882 973.005 196.696 971.51 195.201C970.015 193.706 968.829 191.931 968.02 189.977C967.211 188.024 966.794 185.93 966.794 183.816C966.794 181.702 967.211 179.608 968.02 177.654C968.829 175.701 970.015 173.926 971.51 172.431C973.005 170.936 974.78 169.75 976.733 168.941C978.687 168.132 980.781 167.715 982.895 167.715C985.009 167.715 987.103 168.132 989.057 168.941C991.01 169.75 992.785 170.936 994.28 172.431C995.775 173.926 996.961 175.701 997.77 177.654C998.118 178.495 998.394 179.361 998.595 180.244C998.693 178.568 998.522 176.883 998.086 175.252C997.461 172.922 996.309 170.767 994.719 168.954C993.128 167.14 991.142 165.717 988.913 164.793ZM973.174 189.444C973.45 184.211 977.78 180.053 983.082 180.053C988.179 180.053 992.379 183.896 992.941 188.843C993.06 188.604 993.171 188.362 993.273 188.115C993.838 186.752 994.128 185.291 994.128 183.816C994.128 182.341 993.838 180.88 993.273 179.517C992.709 178.154 991.881 176.916 990.838 175.873C989.795 174.83 988.557 174.002 987.194 173.438C985.831 172.873 984.37 172.583 982.895 172.583C981.42 172.583 979.959 172.873 978.596 173.438C977.233 174.002 975.995 174.83 974.952 175.873C973.909 176.916 973.081 178.154 972.517 179.517C971.952 180.88 971.662 182.341 971.662 183.816C971.662 185.291 971.952 186.752 972.517 188.115C972.707 188.573 972.926 189.017 973.174 189.444ZM988.137 189.976C988.137 192.767 985.874 195.031 983.082 195.031C980.29 195.031 978.027 192.767 978.027 189.976C978.027 187.184 980.29 184.921 983.082 184.921C985.874 184.921 988.137 187.184 988.137 189.976Z" fill="white"/>
<path d="M129.494 262.749L111.357 284.513H127.68L125.866 299.022L144.003 277.259H127.68L129.494 262.749Z" fill="white"/>
<path d="M169.68 277.92V284.633H159.996V293.829H152.387V266.568H171.714V273.281H159.996V277.92H169.68Z" fill="white"/>
<path d="M182.326 266.568V293.829H175.328V266.568H182.326Z" fill="white"/>
<path d="M193.874 272.468C194.959 272.468 196.017 272.712 197.047 273.2C198.105 273.661 198.973 274.258 199.651 274.99V273.078H206.65V293.829H199.651V290.371C199.136 291.51 198.349 292.473 197.292 293.26C196.234 294.046 194.959 294.439 193.467 294.439C191.921 294.439 190.469 294.046 189.113 293.26C187.757 292.473 186.645 291.266 185.777 289.638C184.936 287.984 184.515 285.908 184.515 283.413C184.515 281.08 184.936 279.1 185.777 277.472C186.645 275.845 187.784 274.61 189.194 273.77C190.632 272.902 192.192 272.468 193.874 272.468ZM195.338 279.303C194.335 279.303 193.494 279.71 192.816 280.524C192.165 281.338 191.839 282.301 191.839 283.413C191.839 284.525 192.178 285.461 192.856 286.22C193.535 286.98 194.43 287.36 195.542 287.36C196.139 287.36 196.749 287.21 197.373 286.912C197.997 286.587 198.526 286.112 198.96 285.488C199.421 284.837 199.651 284.01 199.651 283.006V281.012C199.055 280.524 198.377 280.117 197.617 279.792C196.885 279.466 196.125 279.303 195.338 279.303Z" fill="white"/>
<path d="M217.506 272.468C218.862 272.468 220.11 272.671 221.249 273.078C222.415 273.458 223.351 273.987 224.057 274.665V280.158C223.351 279.724 222.551 279.317 221.656 278.937C220.761 278.53 219.798 278.327 218.767 278.327C218.116 278.327 217.533 278.462 217.017 278.734C216.529 278.978 216.285 279.371 216.285 279.914C216.285 280.293 216.434 280.578 216.733 280.768C217.031 280.958 217.614 281.161 218.482 281.378L219.744 281.704C223.351 282.626 225.155 284.566 225.155 287.522C225.155 288.879 224.748 290.086 223.935 291.144C223.148 292.174 222.104 292.988 220.802 293.585C219.527 294.155 218.143 294.439 216.651 294.439C215.105 294.439 213.667 294.222 212.338 293.788C211.009 293.327 209.87 292.771 208.92 292.12V286.668C209.897 287.265 210.996 287.767 212.216 288.173C213.464 288.58 214.576 288.784 215.553 288.784C216.339 288.784 216.909 288.689 217.262 288.499C217.641 288.309 217.831 287.97 217.831 287.482C217.831 287.102 217.614 286.817 217.18 286.627C216.746 286.41 216.122 286.166 215.309 285.895L213.233 285.244C211.714 284.783 210.602 284.064 209.897 283.087C209.192 282.084 208.839 280.863 208.839 279.425C208.839 277.988 209.219 276.753 209.978 275.723C210.738 274.692 211.769 273.892 213.071 273.322C214.4 272.752 215.878 272.468 217.506 272.468Z" fill="white"/>
<path d="M239.592 272.468C241.707 272.468 243.43 273.186 244.759 274.624C246.115 276.062 246.794 278.191 246.794 281.012V293.829H239.795L239.754 282.111C239.754 281.08 239.47 280.361 238.9 279.954C238.33 279.52 237.693 279.303 236.988 279.303C236.228 279.303 235.591 279.507 235.075 279.914C234.56 280.293 234.112 280.754 233.732 281.297V293.829H226.734V266.568H233.732V275.763C234.383 274.868 235.17 274.095 236.092 273.444C237.042 272.793 238.208 272.468 239.592 272.468Z" fill="white"/>
<path d="M246.441 266.726V267.592H245.399V270.226H244.41V267.592H243.368V266.726H246.441Z" fill="white"/>
<path d="M250.503 266.674V270.242H249.514V268.51L248.789 269.324H248.493L247.768 268.51V270.242H246.779V266.674H247.128L248.641 268.195L250.154 266.674H250.503Z" fill="white"/>
<path d="M381.809 273.774V296.57H376.256V287.185H367.618V296.57H362.065V273.774H367.618V282.704H376.256V273.774H381.809Z" fill="white"/>
<path d="M387.311 276.566C386.337 276.566 385.536 276.285 384.908 275.722C384.302 275.137 383.999 274.423 383.999 273.579C383.999 272.713 384.302 271.998 384.908 271.435C385.536 270.851 386.337 270.559 387.311 270.559C388.264 270.559 389.043 270.851 389.649 271.435C390.277 271.998 390.591 272.713 390.591 273.579C390.591 274.423 390.277 275.137 389.649 275.722C389.043 276.285 388.264 276.566 387.311 276.566ZM390.071 278.45V296.57H384.518V278.45H390.071Z" fill="white"/>
<path d="M402.896 291.861V296.57H400.071C398.057 296.57 396.488 296.083 395.362 295.109C394.236 294.113 393.673 292.5 393.673 290.27V283.061H391.465V278.45H393.673V274.033H399.226V278.45H402.863V283.061H399.226V290.335C399.226 290.876 399.356 291.266 399.616 291.504C399.876 291.742 400.309 291.861 400.915 291.861H402.896Z" fill="white"/>
<path d="M421.771 287.218C421.771 287.737 421.738 288.278 421.673 288.841H409.106C409.193 289.967 409.55 290.833 410.178 291.439C410.827 292.024 411.618 292.316 412.548 292.316C413.934 292.316 414.897 291.731 415.439 290.562H421.349C421.046 291.753 420.494 292.825 419.693 293.777C418.913 294.73 417.928 295.477 416.738 296.018C415.547 296.559 414.215 296.83 412.743 296.83C410.968 296.83 409.388 296.451 408.002 295.693C406.617 294.935 405.534 293.853 404.755 292.446C403.975 291.039 403.586 289.393 403.586 287.51C403.586 285.626 403.965 283.981 404.722 282.574C405.502 281.167 406.584 280.084 407.97 279.327C409.355 278.569 410.946 278.19 412.743 278.19C414.497 278.19 416.056 278.558 417.419 279.294C418.783 280.03 419.844 281.08 420.602 282.444C421.381 283.808 421.771 285.399 421.771 287.218ZM416.088 285.756C416.088 284.804 415.763 284.046 415.114 283.483C414.464 282.92 413.653 282.639 412.678 282.639C411.747 282.639 410.957 282.909 410.308 283.451C409.68 283.992 409.29 284.76 409.139 285.756H416.088Z" fill="white"/>
<path d="M422.297 287.51C422.297 285.626 422.676 283.981 423.434 282.574C424.213 281.167 425.285 280.084 426.649 279.327C428.034 278.569 429.615 278.19 431.39 278.19C433.663 278.19 435.557 278.785 437.073 279.976C438.61 281.167 439.616 282.844 440.093 285.009H434.183C433.685 283.624 432.721 282.931 431.292 282.931C430.275 282.931 429.463 283.332 428.857 284.133C428.251 284.912 427.948 286.038 427.948 287.51C427.948 288.982 428.251 290.118 428.857 290.92C429.463 291.699 430.275 292.089 431.292 292.089C432.721 292.089 433.685 291.396 434.183 290.01H440.093C439.616 292.132 438.61 293.799 437.073 295.011C435.536 296.223 433.641 296.83 431.39 296.83C429.615 296.83 428.034 296.451 426.649 295.693C425.285 294.935 424.213 293.853 423.434 292.446C422.676 291.039 422.297 289.393 422.297 287.51Z" fill="white"/>
<path d="M452.902 278.255C454.981 278.255 456.648 278.948 457.903 280.333C459.159 281.697 459.787 283.581 459.787 285.984V296.57H454.266V286.73C454.266 285.518 453.952 284.576 453.325 283.905C452.697 283.234 451.853 282.899 450.792 282.899C449.731 282.899 448.887 283.234 448.259 283.905C447.631 284.576 447.317 285.518 447.317 286.73V296.57H441.764V272.54H447.317V280.885C447.88 280.084 448.648 279.446 449.623 278.969C450.597 278.493 451.69 278.255 452.902 278.255Z" fill="white"/>
<path d="M333.312 284.654L333.312 264.942H339.884L339.884 275.075C341.031 274.632 342.278 274.389 343.581 274.389C349.252 274.389 353.85 278.987 353.85 284.658V296.57H347.278V284.658C347.278 282.616 345.623 280.961 343.581 280.961C341.54 280.961 339.886 282.615 339.884 284.655C339.884 284.656 339.884 284.657 339.884 284.658L339.884 296.57H333.312L333.312 284.658C333.312 284.657 333.312 284.655 333.312 284.654Z" fill="white"/>
<path d="M347.278 271.514V264.942H353.85V271.514L347.278 271.514Z" fill="white"/>
<path d="M561.823 299.245H549.875L561.823 281.177H573.771L561.823 299.245Z" fill="white"/>
<path d="M557.451 262.526H569.691L557.451 281.177H545.212L557.451 262.526Z" fill="white"/>
<path d="M598.146 278.245C598.146 279.353 597.879 280.391 597.345 281.361C596.83 282.33 596.009 283.112 594.882 283.706C593.774 284.299 592.369 284.596 590.667 284.596H587.195V292.55H583.039V271.834H590.667C592.27 271.834 593.635 272.111 594.763 272.665C595.891 273.219 596.732 273.981 597.286 274.95C597.859 275.92 598.146 277.018 598.146 278.245ZM590.489 281.242C591.637 281.242 592.487 280.985 593.041 280.471C593.595 279.936 593.872 279.194 593.872 278.245C593.872 276.226 592.745 275.217 590.489 275.217H587.195V281.242H590.489Z" fill="white"/>
<path d="M604.064 278.66C604.599 277.79 605.291 277.107 606.142 276.612C607.012 276.118 608.002 275.87 609.11 275.87V280.233H608.012C606.706 280.233 605.716 280.54 605.044 281.153C604.391 281.767 604.064 282.835 604.064 284.359V292.55H599.909V276.108H604.064V278.66Z" fill="white"/>
<path d="M618.022 292.817C616.44 292.817 615.015 292.471 613.749 291.778C612.482 291.066 611.483 290.067 610.751 288.781C610.039 287.495 609.683 286.011 609.683 284.329C609.683 282.647 610.049 281.163 610.781 279.877C611.533 278.591 612.552 277.602 613.838 276.909C615.124 276.197 616.558 275.841 618.141 275.841C619.724 275.841 621.159 276.197 622.445 276.909C623.731 277.602 624.74 278.591 625.472 279.877C626.224 281.163 626.6 282.647 626.6 284.329C626.6 286.011 626.214 287.495 625.442 288.781C624.69 290.067 623.661 291.066 622.356 291.778C621.069 292.471 619.625 292.817 618.022 292.817ZM618.022 289.196C618.774 289.196 619.477 289.018 620.13 288.662C620.802 288.286 621.337 287.732 621.732 287C622.128 286.268 622.326 285.378 622.326 284.329C622.326 282.766 621.91 281.569 621.079 280.738C620.268 279.887 619.269 279.461 618.082 279.461C616.895 279.461 615.895 279.887 615.084 280.738C614.293 281.569 613.897 282.766 613.897 284.329C613.897 285.892 614.283 287.099 615.054 287.95C615.846 288.781 616.835 289.196 618.022 289.196Z" fill="white"/>
<path d="M632.616 289.256H637.078V292.55H628.46V269.281H632.616V289.256Z" fill="white"/>
<path d="M640.301 274.149C639.569 274.149 638.955 273.921 638.461 273.466C637.986 272.991 637.749 272.408 637.749 271.715C637.749 271.023 637.986 270.449 638.461 269.994C638.955 269.519 639.569 269.281 640.301 269.281C641.033 269.281 641.637 269.519 642.111 269.994C642.606 270.449 642.853 271.023 642.853 271.715C642.853 272.408 642.606 272.991 642.111 273.466C641.637 273.921 641.033 274.149 640.301 274.149ZM642.349 276.108V292.55H638.194V276.108H642.349Z" fill="white"/>
<path d="M654.378 275.87C656.337 275.87 657.92 276.494 659.127 277.74C660.334 278.967 660.938 280.688 660.938 282.904V292.55H656.782V283.468C656.782 282.162 656.456 281.163 655.803 280.471C655.15 279.758 654.26 279.402 653.132 279.402C651.984 279.402 651.074 279.758 650.401 280.471C649.748 281.163 649.422 282.162 649.422 283.468V292.55H645.267V276.108H649.422V278.156C649.976 277.443 650.678 276.889 651.529 276.494C652.4 276.078 653.35 275.87 654.378 275.87Z" fill="white"/>
<path d="M678.987 283.973C678.987 284.566 678.947 285.101 678.868 285.575H666.848C666.947 286.763 667.362 287.693 668.094 288.365C668.826 289.038 669.727 289.374 670.795 289.374C672.338 289.374 673.437 288.712 674.089 287.386H678.571C678.096 288.969 677.186 290.275 675.841 291.304C674.495 292.313 672.843 292.817 670.884 292.817C669.301 292.817 667.877 292.471 666.61 291.778C665.364 291.066 664.384 290.067 663.672 288.781C662.98 287.495 662.633 286.011 662.633 284.329C662.633 282.627 662.98 281.133 663.672 279.847C664.365 278.561 665.334 277.572 666.581 276.879C667.827 276.187 669.262 275.841 670.884 275.841C672.447 275.841 673.842 276.177 675.069 276.85C676.315 277.522 677.275 278.482 677.948 279.729C678.64 280.955 678.987 282.37 678.987 283.973ZM674.683 282.786C674.663 281.717 674.277 280.866 673.526 280.233C672.774 279.58 671.854 279.254 670.765 279.254C669.737 279.254 668.866 279.57 668.154 280.203C667.461 280.817 667.036 281.678 666.877 282.786H674.683Z" fill="white"/>
<path fill-rule="evenodd" clip-rule="evenodd" d="M794.121 264.742C795.413 265.277 796.586 266.062 797.575 267.05C798.564 268.039 799.348 269.212 799.883 270.504C800.418 271.795 800.694 273.18 800.694 274.578C800.694 275.976 800.418 277.36 799.883 278.652C799.348 279.944 798.564 281.117 797.575 282.105L782.809 296.871C781.516 298.164 779.421 298.164 778.128 296.871L763.362 282.105C761.366 280.109 760.244 277.401 760.244 274.578C760.244 271.754 761.366 269.047 763.362 267.05C765.359 265.054 768.066 263.932 770.89 263.932C773.713 263.932 776.421 265.054 778.417 267.05L780.468 269.102L782.52 267.05C783.508 266.062 784.682 265.277 785.973 264.742C787.265 264.207 788.649 263.931 790.047 263.931C791.445 263.931 792.83 264.207 794.121 264.742ZM774.909 275.506C773.399 277.771 772.279 280.048 772.279 282.519C772.279 286.158 774.363 289.58 777.351 290.908L778.372 289.454C779.606 288.045 781.606 288.044 782.84 289.454L783.674 290.407C786.662 289.079 788.495 285.967 788.495 282.518C788.495 278.235 784.978 275.44 784.978 275.44C784.625 275.105 784.33 275.239 784.329 275.721C784.329 275.721 784.551 279.889 782.36 279.889C781.243 279.889 781.224 278.826 781.195 277.28C781.158 275.317 781.107 272.577 778.778 270.247C777.86 269.461 777.491 269.145 777.322 269.229C776.924 269.426 777.62 271.821 774.909 275.506ZM784.583 271.981C783.793 270.762 782.261 270.061 781.585 270.179C781.293 270.229 781.38 270.325 781.606 270.575C781.902 270.902 782.436 271.494 782.664 272.594C783.066 274.53 785.685 273.741 784.583 271.981Z" fill="white"/>
<path d="M828.933 275.963C828.366 274.924 827.587 274.133 826.595 273.59C825.604 273.047 824.447 272.775 823.125 272.775C821.661 272.775 820.362 273.106 819.229 273.767C818.095 274.428 817.21 275.373 816.572 276.6C815.935 277.828 815.616 279.245 815.616 280.85C815.616 282.503 815.935 283.943 816.572 285.171C817.234 286.399 818.143 287.344 819.3 288.005C820.456 288.666 821.802 288.996 823.337 288.996C825.226 288.996 826.773 288.501 827.977 287.509C829.181 286.494 829.972 285.089 830.35 283.294H821.85V279.505H835.237V283.825C834.907 285.549 834.198 287.143 833.112 288.607C832.026 290.071 830.621 291.251 828.898 292.148C827.198 293.022 825.285 293.459 823.16 293.459C820.775 293.459 818.615 292.928 816.679 291.865C814.766 290.779 813.255 289.28 812.145 287.367C811.059 285.455 810.516 283.282 810.516 280.85C810.516 278.418 811.059 276.246 812.145 274.334C813.255 272.397 814.766 270.898 816.679 269.836C818.615 268.75 820.763 268.206 823.125 268.206C825.911 268.206 828.331 268.891 830.385 270.261C832.439 271.607 833.856 273.507 834.635 275.963H828.933Z" fill="white"/>
<path d="M855.375 283.011C855.375 283.719 855.327 284.357 855.233 284.923H840.889C841.007 286.34 841.503 287.45 842.377 288.253C843.25 289.055 844.325 289.457 845.6 289.457C847.441 289.457 848.752 288.666 849.531 287.084H854.879C854.312 288.973 853.226 290.531 851.62 291.759C850.015 292.963 848.043 293.565 845.706 293.565C843.817 293.565 842.117 293.152 840.606 292.326C839.118 291.476 837.949 290.283 837.099 288.748C836.273 287.214 835.86 285.443 835.86 283.436C835.86 281.405 836.273 279.623 837.099 278.088C837.926 276.553 839.083 275.373 840.57 274.546C842.058 273.72 843.77 273.307 845.706 273.307C847.571 273.307 849.236 273.708 850.7 274.511C852.187 275.314 853.332 276.459 854.135 277.946C854.962 279.41 855.375 281.098 855.375 283.011ZM850.239 281.594C850.216 280.319 849.755 279.304 848.858 278.548C847.961 277.769 846.863 277.38 845.564 277.38C844.336 277.38 843.297 277.757 842.447 278.513C841.621 279.245 841.113 280.272 840.924 281.594H850.239Z" fill="white"/>
<path d="M868.096 273.342C870.434 273.342 872.323 274.086 873.763 275.573C875.203 277.037 875.923 279.091 875.923 281.736V293.246H870.965V282.409C870.965 280.85 870.575 279.658 869.796 278.832C869.017 277.982 867.954 277.557 866.609 277.557C865.239 277.557 864.153 277.982 863.35 278.832C862.571 279.658 862.181 280.85 862.181 282.409V293.246H857.223V273.625H862.181V276.069C862.843 275.219 863.681 274.558 864.696 274.086C865.735 273.59 866.868 273.342 868.096 273.342Z" fill="white"/>
<path d="M883.932 289.067H895.053V293.246H878.195V289.421L889.245 272.704H878.195V268.525H895.053V272.35L883.932 289.067Z" fill="white"/>
<path d="M1047.23 280.446C1046.46 281.192 1046.08 282.281 1046.08 283.71V292.64H1040.96V275.101H1045.02V280.889C1045.22 279.237 1045.71 277.905 1046.5 276.893C1047.56 275.549 1049.1 274.877 1051.1 274.877H1051.78V279.293H1050.5C1049.09 279.293 1048 279.678 1047.23 280.446Z" fill="white"/>
<path fill-rule="evenodd" clip-rule="evenodd" d="M1062.75 290.495C1062.97 290.123 1063.16 289.711 1063.3 289.261V292.64H1067.36V281.886C1067.36 280.264 1067.04 278.941 1066.4 277.917C1065.76 276.872 1064.82 276.093 1063.59 275.581C1062.37 275.069 1060.87 274.813 1059.07 274.813C1058.45 274.813 1057.79 274.823 1057.09 274.845C1056.38 274.866 1055.7 274.898 1055.04 274.941C1054.38 274.983 1053.8 275.026 1053.31 275.069V279.39C1053.97 279.347 1054.71 279.304 1055.52 279.261C1056.33 279.219 1057.12 279.187 1057.89 279.165C1058.66 279.144 1059.28 279.133 1059.75 279.133C1060.68 279.133 1061.37 279.357 1061.79 279.806C1062.22 280.254 1062.43 280.926 1062.43 281.822V281.886H1059.27C1057.71 281.886 1056.33 282.089 1055.14 282.494C1053.94 282.878 1053.01 283.486 1052.35 284.318C1051.69 285.129 1051.36 286.175 1051.36 287.455C1051.36 288.628 1051.63 289.642 1052.16 290.495C1052.69 291.328 1053.43 291.968 1054.37 292.416C1055.33 292.864 1056.44 293.088 1057.7 293.088C1058.91 293.088 1059.94 292.864 1060.77 292.416C1061.62 291.968 1062.28 291.328 1062.75 290.495ZM1061.92 288.191C1062.22 287.7 1062.39 287.018 1062.43 286.143V284.734H1059.23C1058.34 284.734 1057.64 284.958 1057.15 285.407C1056.68 285.833 1056.45 286.42 1056.45 287.167C1056.45 287.871 1056.68 288.447 1057.15 288.895C1057.64 289.322 1058.34 289.535 1059.23 289.535C1059.81 289.535 1060.32 289.439 1060.77 289.247C1061.24 289.034 1061.62 288.682 1061.92 288.191Z" fill="white"/>
<path d="M1077.98 293.248C1076.47 293.248 1075.14 293.003 1074.01 292.512C1072.9 292 1071.97 291.317 1071.23 290.463C1070.48 289.61 1069.93 288.65 1069.56 287.583C1069.2 286.495 1069.02 285.375 1069.02 284.222V283.614C1069.02 282.419 1069.21 281.278 1069.59 280.19C1069.98 279.08 1070.54 278.099 1071.29 277.245C1072.04 276.392 1072.97 275.72 1074.08 275.229C1075.21 274.738 1076.5 274.493 1077.95 274.493C1079.53 274.493 1080.92 274.802 1082.14 275.421C1083.36 276.018 1084.33 276.861 1085.05 277.949C1085.78 279.037 1086.18 280.286 1086.27 281.694H1081.25C1081.16 280.904 1080.84 280.243 1080.28 279.71C1079.75 279.155 1078.97 278.877 1077.95 278.877C1077.09 278.877 1076.38 279.091 1075.8 279.518C1075.25 279.944 1074.83 280.531 1074.56 281.278C1074.28 282.025 1074.14 282.91 1074.14 283.934C1074.14 284.873 1074.27 285.727 1074.52 286.495C1074.78 287.242 1075.19 287.828 1075.74 288.255C1076.32 288.66 1077.06 288.863 1077.98 288.863C1078.66 288.863 1079.24 288.746 1079.71 288.511C1080.2 288.255 1080.58 287.914 1080.86 287.487C1081.16 287.039 1081.34 286.527 1081.41 285.951H1086.4C1086.33 287.402 1085.93 288.682 1085.18 289.791C1084.43 290.88 1083.44 291.733 1082.21 292.352C1080.97 292.949 1079.56 293.248 1077.98 293.248Z" fill="white"/>
<path fill-rule="evenodd" clip-rule="evenodd" d="M1092.14 292.48C1093.29 292.992 1094.61 293.248 1096.11 293.248C1097.58 293.248 1098.88 292.992 1100.01 292.48C1101.14 291.968 1102.08 291.253 1102.83 290.335C1103.57 289.418 1104.08 288.372 1104.33 287.199H1099.63C1099.41 287.732 1099.01 288.18 1098.41 288.543C1097.81 288.906 1097.05 289.087 1096.11 289.087C1095.08 289.087 1094.25 288.874 1093.61 288.447C1092.97 288.02 1092.5 287.423 1092.2 286.655C1092.03 286.215 1091.91 285.734 1091.84 285.215H1104.65V283.486C1104.65 281.886 1104.31 280.414 1103.63 279.069C1102.94 277.704 1101.95 276.605 1100.65 275.773C1099.37 274.919 1097.79 274.493 1095.91 274.493C1094.48 274.493 1093.2 274.749 1092.07 275.261C1090.96 275.752 1090.04 276.424 1089.29 277.277C1088.54 278.131 1087.97 279.101 1087.56 280.19C1087.18 281.257 1086.98 282.377 1086.98 283.55V284.19C1086.98 285.321 1087.18 286.431 1087.56 287.519C1087.97 288.586 1088.54 289.557 1089.29 290.431C1090.06 291.285 1091.01 291.968 1092.14 292.48ZM1091.88 282.302C1091.96 281.843 1092.08 281.427 1092.23 281.054C1092.55 280.264 1093.02 279.667 1093.64 279.261C1094.26 278.856 1095.02 278.653 1095.91 278.653C1096.79 278.653 1097.51 278.856 1098.09 279.261C1098.69 279.646 1099.14 280.211 1099.43 280.958C1099.6 281.362 1099.71 281.81 1099.79 282.302H1091.88Z" fill="white"/>
<path d="M1028.77 292.64V273.853H1022.2V269.276H1040.61V273.853H1034.01V292.64H1028.77Z" fill="white"/>
<path fill-rule="evenodd" clip-rule="evenodd" d="M998.29 267.67C990.991 267.67 985.074 273.587 985.074 280.886C985.074 288.185 990.991 294.102 998.29 294.102C1005.59 294.102 1011.51 288.185 1011.51 280.886C1011.51 273.587 1005.59 267.67 998.29 267.67ZM982.137 280.886C982.137 271.965 989.369 264.733 998.29 264.733C1007.21 264.733 1014.44 271.965 1014.44 280.886C1014.44 289.807 1007.21 297.039 998.29 297.039C989.369 297.039 982.137 289.807 982.137 280.886Z" fill="white"/>
<path fill-rule="evenodd" clip-rule="evenodd" d="M1006.35 275.41C1006.78 274.054 1005.49 272.78 1004.14 273.224L994.933 276.245C994.4 276.42 993.983 276.84 993.814 277.375L990.961 286.362C990.53 287.718 991.816 288.992 993.168 288.548L1002.38 285.527C1002.91 285.352 1003.32 284.931 1003.49 284.397L1006.35 275.41ZM998.652 282.984C999.811 282.984 1000.75 282.044 1000.75 280.886C1000.75 279.727 999.811 278.788 998.652 278.788C997.494 278.788 996.555 279.727 996.555 280.886C996.555 282.044 997.494 282.984 998.652 282.984Z" fill="white"/>
<path d="M1208.56 257.797C1209.82 257.071 1211.37 257.071 1212.62 257.797L1229.26 267.403L1217.76 274.14C1215.97 272.352 1213.51 271.246 1210.79 271.246C1207.96 271.246 1205.4 272.443 1203.61 274.358L1191.83 267.459L1208.56 257.797Z" fill="white"/>
<path d="M1201.37 278.249L1189.58 271.349V290.638L1201.32 283.763C1201.08 282.911 1200.95 282.011 1200.95 281.082C1200.95 280.097 1201.1 279.146 1201.37 278.249Z" fill="white"/>
<path d="M1203.5 287.691L1192.01 294.42L1208.56 303.975C1209.82 304.7 1211.37 304.7 1212.62 303.975L1229.08 294.475L1217.87 287.911C1216.08 289.764 1213.57 290.917 1210.79 290.917C1207.9 290.917 1205.3 289.673 1203.5 287.691Z" fill="white"/>
<path d="M1220.17 284.053L1231.6 290.75C1231.6 290.724 1231.6 290.698 1231.6 290.672V271.237L1220.12 277.962C1220.45 278.942 1220.62 279.991 1220.62 281.082C1220.62 282.117 1220.46 283.116 1220.17 284.053Z" fill="white"/>
<path fill-rule="evenodd" clip-rule="evenodd" d="M1245.21 292.15C1246.86 293.157 1248.84 293.66 1251.15 293.66C1253.47 293.66 1255.45 293.157 1257.1 292.15C1258.75 291.134 1260.02 289.721 1260.9 287.912C1261.79 286.103 1262.23 284.005 1262.23 281.618C1262.23 279.232 1261.79 277.134 1260.9 275.325C1260.02 273.516 1258.75 272.109 1257.1 271.102C1255.45 270.086 1253.47 269.577 1251.15 269.577C1248.84 269.577 1246.86 270.086 1245.21 271.102C1243.57 272.109 1242.3 273.516 1241.41 275.325C1240.53 277.134 1240.09 279.232 1240.09 281.618C1240.09 284.005 1240.53 286.103 1241.41 287.912C1242.3 289.721 1243.57 291.134 1245.21 292.15ZM1255.02 288.988C1254 289.683 1252.71 290.026 1251.15 290.015C1249.6 289.994 1248.31 289.635 1247.27 288.939C1246.24 288.244 1245.47 287.275 1244.96 286.034C1244.44 284.781 1244.19 283.31 1244.19 281.618C1244.19 279.927 1244.44 278.45 1244.96 277.187C1245.48 275.924 1246.26 274.945 1247.29 274.249C1248.31 273.554 1249.6 273.211 1251.15 273.222C1252.71 273.243 1254 273.602 1255.02 274.297C1256.06 274.993 1256.84 275.967 1257.35 277.219C1257.88 278.461 1258.14 279.927 1258.14 281.618C1258.14 283.31 1257.88 284.787 1257.35 286.05C1256.84 287.313 1256.06 288.292 1255.02 288.988Z" fill="white"/>
<path d="M1264.14 292.366C1264.14 292.814 1264.51 293.178 1264.96 293.178H1267.22C1267.67 293.178 1268.03 292.814 1268.03 292.366V284.364C1268.03 283.7 1268.11 283.085 1268.27 282.518C1268.43 281.94 1268.68 281.426 1269.01 280.976C1269.35 280.527 1269.79 280.157 1270.33 279.868C1270.86 279.547 1271.46 279.36 1272.12 279.307C1272.37 279.287 1272.61 279.281 1272.84 279.289C1273.38 279.308 1273.91 278.91 1273.91 278.368V276.527C1273.91 276.13 1273.62 275.785 1273.22 275.763C1272.92 275.747 1272.62 275.75 1272.32 275.774C1271.77 275.807 1271.23 275.908 1270.71 276.08C1270.2 276.24 1269.73 276.465 1269.3 276.754C1268.79 277.064 1268.36 277.46 1268 277.942C1267.84 278.153 1267.69 278.375 1267.56 278.608V276.651C1267.56 276.202 1267.2 275.839 1266.75 275.839H1264.96C1264.51 275.839 1264.14 276.202 1264.14 276.651V292.366Z" fill="white"/>
<path fill-rule="evenodd" clip-rule="evenodd" d="M1284.02 293.66C1282.33 293.66 1280.91 293.258 1279.76 292.456C1279.52 292.285 1279.29 292.102 1279.07 291.906V292.366C1279.07 292.814 1278.71 293.178 1278.26 293.178H1276.46C1276.02 293.178 1275.65 292.814 1275.65 292.366V270.871C1275.65 270.423 1276.02 270.059 1276.46 270.059H1278.74C1279.19 270.059 1279.55 270.423 1279.55 270.871V276.679C1279.61 276.639 1279.66 276.6 1279.71 276.561C1280.84 275.758 1282.22 275.357 1283.87 275.357C1285.51 275.357 1286.93 275.758 1288.13 276.561C1289.34 277.353 1290.27 278.44 1290.94 279.82C1291.6 281.19 1291.93 282.753 1291.93 284.508C1291.93 286.242 1291.61 287.8 1290.95 289.18C1290.3 290.561 1289.38 291.653 1288.19 292.456C1287 293.258 1285.61 293.66 1284.02 293.66ZM1279.51 281.538C1279.22 282.384 1279.07 283.374 1279.07 284.508C1279.07 285.632 1279.22 286.622 1279.51 287.479C1279.81 288.335 1280.27 289.004 1280.9 289.485C1281.54 289.956 1282.38 290.192 1283.42 290.192C1284.43 290.192 1285.26 289.94 1285.91 289.437C1286.56 288.934 1287.05 288.254 1287.36 287.398C1287.68 286.531 1287.84 285.568 1287.84 284.508C1287.84 283.459 1287.68 282.507 1287.36 281.651C1287.04 280.784 1286.54 280.099 1285.86 279.596C1285.19 279.082 1284.33 278.825 1283.29 278.825C1282.31 278.825 1281.51 279.066 1280.89 279.547C1280.27 280.018 1279.81 280.682 1279.51 281.538Z" fill="white"/>
<path d="M1294.51 292.366C1294.51 292.814 1294.87 293.178 1295.32 293.178H1297.56C1298.01 293.178 1298.38 292.814 1298.38 292.366V276.651C1298.38 276.202 1298.01 275.839 1297.56 275.839H1295.32C1294.87 275.839 1294.51 276.202 1294.51 276.651V292.366Z" fill="white"/>
<path d="M1312.06 292.503C1312.06 292.895 1311.79 293.232 1311.4 293.289C1310.48 293.423 1309.58 293.477 1308.69 293.451C1307.6 293.43 1306.62 293.232 1305.75 292.857C1304.89 292.472 1304.23 291.867 1303.78 291.043C1303.38 290.293 1303.18 289.528 1303.15 288.747C1303.13 287.966 1303.12 287.082 1303.12 286.098V278.873H1300.79C1300.34 278.873 1299.98 278.509 1299.98 278.061V276.651C1299.98 276.202 1300.34 275.839 1300.79 275.839H1303.12V271.835C1303.12 271.386 1303.49 271.022 1303.93 271.022H1306.16C1306.61 271.022 1306.98 271.386 1306.98 271.835V275.839H1311.25C1311.7 275.839 1312.06 276.202 1312.06 276.651V278.061C1312.06 278.509 1311.7 278.873 1311.25 278.873H1306.98V285.873C1306.98 286.569 1306.98 287.179 1306.99 287.703C1307.01 288.228 1307.13 288.656 1307.33 288.988C1307.71 289.63 1308.33 289.988 1309.17 290.063C1309.77 290.116 1310.42 290.111 1311.13 290.047C1311.62 290.003 1312.06 290.381 1312.06 290.877V292.503Z" fill="white"/>
<path d="M1316.58 292.472C1317.85 293.264 1319.37 293.66 1321.16 293.66C1323.1 293.66 1324.74 293.189 1326.07 292.247C1327.19 291.448 1328.03 290.364 1328.59 288.994C1328.77 288.556 1328.49 288.081 1328.03 287.978L1325.65 287.445C1325.24 287.355 1324.84 287.589 1324.66 287.962C1324.38 288.527 1324.02 288.981 1323.58 289.325C1323 289.796 1322.19 290.031 1321.16 290.031C1319.7 290.031 1318.61 289.523 1317.87 288.506C1317.13 287.489 1316.76 286.157 1316.76 284.508C1316.76 283.449 1316.92 282.501 1317.23 281.667C1317.54 280.832 1318.02 280.179 1318.67 279.708C1319.32 279.226 1320.15 278.985 1321.16 278.985C1322.05 278.985 1322.84 279.248 1323.54 279.772C1324.04 280.145 1324.44 280.628 1324.74 281.222C1324.93 281.61 1325.36 281.85 1325.78 281.737L1328.12 281.103C1328.54 280.988 1328.8 280.552 1328.66 280.137C1328.18 278.78 1327.36 277.684 1326.2 276.85C1324.84 275.855 1323.18 275.357 1321.21 275.357C1319.45 275.357 1317.94 275.753 1316.67 276.545C1315.39 277.326 1314.41 278.407 1313.71 279.788C1313.03 281.158 1312.68 282.732 1312.67 284.508C1312.68 286.253 1313.02 287.816 1313.68 289.196C1314.35 290.577 1315.32 291.669 1316.58 292.472Z" fill="white"/>
<path d="M1294.42 271.166L1295.51 270.077C1295.98 269.601 1296.75 269.601 1297.23 270.077L1298.32 271.166C1298.79 271.642 1298.79 272.414 1298.32 272.89L1297.23 273.979C1296.75 274.455 1295.98 274.455 1295.51 273.979L1294.42 272.89C1293.94 272.414 1293.94 271.642 1294.42 271.166Z" fill="white"/>
<defs>
<clipPath id="clip0_22_1190">
<rect width="167" height="72.0901" fill="white" transform="translate(314 143.465)"/>
</clipPath>
</defs>
</svg>
