<svg width="52" height="52" viewBox="0 0 52 52" fill="none" xmlns="http://www.w3.org/2000/svg">
<path d="M25.9941 50.7008C39.798 50.7008 50.9883 39.5749 50.9883 25.8504C50.9883 12.1259 39.798 1 25.9941 1C12.1903 1 1 12.1259 1 25.8504C1 39.5749 12.1903 50.7008 25.9941 50.7008Z" stroke="#B7B7B7"/>
<path d="M24.6945 33.1975L24.674 26.9382H21.9961V24.2557H24.674V22.4673C24.674 20.0538 26.1661 18.8906 28.3155 18.8906C29.3451 18.8906 30.2299 18.9674 30.4878 19.0017V21.524L28.9971 21.5247C27.8281 21.5247 27.6018 22.0811 27.6018 22.8977V24.2557H30.9226L30.0299 26.9382H27.6018V33.1975H24.6945Z" fill="#6161FF"/>
</svg>
