<svg width="52" height="52" viewBox="0 0 52 52" fill="none" xmlns="http://www.w3.org/2000/svg">
<path d="M25.9824 50.7008C39.7863 50.7008 50.9766 39.5749 50.9766 25.8504C50.9766 12.1259 39.7863 1 25.9824 1C12.1785 1 0.988281 12.1259 0.988281 25.8504C0.988281 39.5749 12.1785 50.7008 25.9824 50.7008Z" stroke="#B7B7B7"/>
<g clip-path="url(#clip0_29_3706)">
<path d="M29.7317 18.3984H22.2335C20.1629 18.3984 18.4844 20.0673 18.4844 22.126V29.5811C18.4844 31.6398 20.1629 33.3087 22.2335 33.3087H29.7317C31.8023 33.3087 33.4809 31.6398 33.4809 29.5811V22.126C33.4809 20.0673 31.8023 18.3984 29.7317 18.3984Z" stroke="#6161FF" stroke-width="2" stroke-linecap="round" stroke-linejoin="round"/>
<path d="M28.9818 25.3845C29.0743 26.0049 28.9677 26.6386 28.6772 27.1953C28.3866 27.7521 27.9269 28.2036 27.3634 28.4856C26.7999 28.7676 26.1613 28.8657 25.5384 28.7661C24.9156 28.6664 24.3402 28.374 23.8941 27.9305C23.448 27.487 23.1539 26.9149 23.0537 26.2957C22.9535 25.6764 23.0522 25.0415 23.3358 24.4812C23.6195 23.9209 24.0736 23.4638 24.6335 23.175C25.1935 22.8861 25.8308 22.7801 26.4549 22.8721C27.0914 22.966 27.6807 23.2609 28.1358 23.7133C28.5908 24.1657 28.8874 24.7516 28.9818 25.3845Z" stroke="#6161FF" stroke-width="2" stroke-linecap="round" stroke-linejoin="round"/>
<ellipse cx="30.1055" cy="21.7511" rx="1.125" ry="1.11827" fill="white"/>
</g>
<defs>
<clipPath id="clip0_29_3706">
<rect width="17.9958" height="17.8923" fill="white" transform="translate(16.9844 16.9062)"/>
</clipPath>
</defs>
</svg>
