<svg width="151" height="30" viewBox="0 0 151 30" fill="none" xmlns="http://www.w3.org/2000/svg">
<path d="M2.5834 3V3C7.69004 8.42297 16.3101 8.42297 21.4167 3V3" stroke="#6236F5" stroke-width="3" stroke-linecap="square"/>
<path d="M2 13H22" stroke="#6236F5" stroke-width="3" stroke-linecap="square"/>
<path d="M2.5834 23V23C7.69004 17.577 16.3101 17.577 21.4167 23V23" stroke="#6236F5" stroke-width="3" stroke-linecap="square"/>
<path d="M32.37 23.5V2.2H39.39C42.45 2.2 45.04 3.23 47.16 5.29C49.28 7.35 50.34 9.87 50.34 12.85C50.34 15.83 49.28 18.35 47.16 20.41C45.04 22.47 42.45 23.5 39.39 23.5H32.37ZM36.72 19.51H39.39C41.33 19.51 42.91 18.87 44.13 17.59C45.35 16.31 45.96 14.73 45.96 12.85C45.96 10.97 45.35 9.39 44.13 8.11C42.91 6.83 41.33 6.19 39.39 6.19H36.72V19.51ZM57.5681 23.83C55.7881 23.83 54.3981 23.23 53.3981 22.03C52.4181 20.83 51.9281 19.22 51.9281 17.2V8.5H56.0381V16.51C56.0381 18.89 56.8881 20.08 58.5881 20.08C59.5481 20.08 60.2981 19.72 60.8381 19C61.3981 18.28 61.6781 17.22 61.6781 15.82V8.5H65.7881V23.5H61.6781V21.79C60.7581 23.15 59.3881 23.83 57.5681 23.83ZM77.0048 23.83C76.0448 23.83 75.1748 23.63 74.3948 23.23C73.6148 22.83 73.0348 22.36 72.6548 21.82V23.5H68.5448V0.999998H72.6548V10.18C73.0348 9.64 73.6148 9.17 74.3948 8.77C75.1748 8.37 76.0448 8.17 77.0048 8.17C78.9848 8.17 80.6548 8.94 82.0148 10.48C83.3748 12.02 84.0548 13.86 84.0548 16C84.0548 18.14 83.3748 19.98 82.0148 21.52C80.6548 23.06 78.9848 23.83 77.0048 23.83ZM73.3448 18.94C74.0448 19.7 74.9648 20.08 76.1048 20.08C77.2448 20.08 78.1548 19.7 78.8348 18.94C79.5348 18.18 79.8848 17.2 79.8848 16C79.8848 14.8 79.5348 13.82 78.8348 13.06C78.1548 12.3 77.2448 11.92 76.1048 11.92C74.9648 11.92 74.0448 12.3 73.3448 13.06C72.6648 13.82 72.3248 14.8 72.3248 16C72.3248 17.2 72.6648 18.18 73.3448 18.94ZM94.3205 23.83C93.3605 23.83 92.4905 23.63 91.7105 23.23C90.9305 22.83 90.3505 22.36 89.9705 21.82V23.5H85.8605V0.999998H89.9705V10.18C90.3505 9.64 90.9305 9.17 91.7105 8.77C92.4905 8.37 93.3605 8.17 94.3205 8.17C96.3005 8.17 97.9705 8.94 99.3305 10.48C100.69 12.02 101.37 13.86 101.37 16C101.37 18.14 100.69 19.98 99.3305 21.52C97.9705 23.06 96.3005 23.83 94.3205 23.83ZM90.6605 18.94C91.3605 19.7 92.2805 20.08 93.4205 20.08C94.5605 20.08 95.4705 19.7 96.1505 18.94C96.8505 18.18 97.2005 17.2 97.2005 16C97.2005 14.8 96.8505 13.82 96.1505 13.06C95.4705 12.3 94.5605 11.92 93.4205 11.92C92.2805 11.92 91.3605 12.3 90.6605 13.06C89.9805 13.82 89.6405 14.8 89.6405 16C89.6405 17.2 89.9805 18.18 90.6605 18.94ZM108.437 29.77H103.967L107.117 22.66L100.817 8.5H105.317L109.337 18.22L113.327 8.5H117.857L108.437 29.77ZM120.711 23.5L129.891 2.2H133.761L142.971 23.5H138.411L136.341 18.64H127.251L125.211 23.5H120.711ZM131.811 7.93L128.871 14.83H134.721L131.811 7.93ZM144.146 23.5V2.2H148.496V23.5H144.146Z" fill="#6236F5"/>
</svg>
