<svg width="151" height="30" viewBox="0 0 151 30" fill="none" xmlns="http://www.w3.org/2000/svg">
<path d="M2.5835 2.5V2.5C7.69013 7.92297 16.3102 7.92297 21.4168 2.5V2.5" stroke="white" stroke-width="3" stroke-linecap="square"/>
<path d="M2 12.5H22" stroke="white" stroke-width="3" stroke-linecap="square"/>
<path d="M2.5835 22.5V22.5C7.69013 17.077 16.3102 17.077 21.4168 22.5V22.5" stroke="white" stroke-width="3" stroke-linecap="square"/>
<path d="M32.37 23V1.7H39.39C42.45 1.7 45.04 2.73 47.16 4.79C49.28 6.85 50.34 9.37 50.34 12.35C50.34 15.33 49.28 17.85 47.16 19.91C45.04 21.97 42.45 23 39.39 23H32.37ZM36.72 19.01H39.39C41.33 19.01 42.91 18.37 44.13 17.09C45.35 15.81 45.96 14.23 45.96 12.35C45.96 10.47 45.35 8.89 44.13 7.61C42.91 6.33 41.33 5.69 39.39 5.69H36.72V19.01ZM57.5681 23.33C55.7881 23.33 54.3981 22.73 53.3981 21.53C52.4181 20.33 51.9281 18.72 51.9281 16.7V8H56.0381V16.01C56.0381 18.39 56.8881 19.58 58.5881 19.58C59.5481 19.58 60.2981 19.22 60.8381 18.5C61.3981 17.78 61.6781 16.72 61.6781 15.32V8H65.7881V23H61.6781V21.29C60.7581 22.65 59.3881 23.33 57.5681 23.33ZM77.0048 23.33C76.0448 23.33 75.1748 23.13 74.3948 22.73C73.6148 22.33 73.0348 21.86 72.6548 21.32V23H68.5448V0.499998H72.6548V9.68C73.0348 9.14 73.6148 8.67 74.3948 8.27C75.1748 7.87 76.0448 7.67 77.0048 7.67C78.9848 7.67 80.6548 8.44 82.0148 9.98C83.3748 11.52 84.0548 13.36 84.0548 15.5C84.0548 17.64 83.3748 19.48 82.0148 21.02C80.6548 22.56 78.9848 23.33 77.0048 23.33ZM73.3448 18.44C74.0448 19.2 74.9648 19.58 76.1048 19.58C77.2448 19.58 78.1548 19.2 78.8348 18.44C79.5348 17.68 79.8848 16.7 79.8848 15.5C79.8848 14.3 79.5348 13.32 78.8348 12.56C78.1548 11.8 77.2448 11.42 76.1048 11.42C74.9648 11.42 74.0448 11.8 73.3448 12.56C72.6648 13.32 72.3248 14.3 72.3248 15.5C72.3248 16.7 72.6648 17.68 73.3448 18.44ZM94.3205 23.33C93.3605 23.33 92.4905 23.13 91.7105 22.73C90.9305 22.33 90.3505 21.86 89.9705 21.32V23H85.8605V0.499998H89.9705V9.68C90.3505 9.14 90.9305 8.67 91.7105 8.27C92.4905 7.87 93.3605 7.67 94.3205 7.67C96.3005 7.67 97.9705 8.44 99.3305 9.98C100.69 11.52 101.37 13.36 101.37 15.5C101.37 17.64 100.69 19.48 99.3305 21.02C97.9705 22.56 96.3005 23.33 94.3205 23.33ZM90.6605 18.44C91.3605 19.2 92.2805 19.58 93.4205 19.58C94.5605 19.58 95.4705 19.2 96.1505 18.44C96.8505 17.68 97.2005 16.7 97.2005 15.5C97.2005 14.3 96.8505 13.32 96.1505 12.56C95.4705 11.8 94.5605 11.42 93.4205 11.42C92.2805 11.42 91.3605 11.8 90.6605 12.56C89.9805 13.32 89.6405 14.3 89.6405 15.5C89.6405 16.7 89.9805 17.68 90.6605 18.44ZM108.437 29.27H103.967L107.117 22.16L100.817 8H105.317L109.337 17.72L113.327 8H117.857L108.437 29.27ZM120.711 23L129.891 1.7H133.761L142.971 23H138.411L136.341 18.14H127.251L125.211 23H120.711ZM131.811 7.43L128.871 14.33H134.721L131.811 7.43ZM144.146 23V1.7H148.496V23H144.146Z" fill="white"/>
</svg>
