<svg width="89" height="16" viewBox="0 0 89 16" fill="none" xmlns="http://www.w3.org/2000/svg">
<path d="M79.4641 0.550844C79.8391 -0.199156 80.9016 -0.167906 81.2454 0.550844L83.3079 4.70709L87.8704 5.36334C88.6829 5.48834 88.9954 6.48834 88.4016 7.08209L85.1204 10.3008L85.9016 14.8321C86.0266 15.6446 85.1516 16.2696 84.4329 15.8946L80.3704 13.7383L76.2766 15.8946C75.5579 16.2696 74.6829 15.6446 74.8079 14.8321L75.5891 10.3008L72.3079 7.08209C71.7141 6.48834 72.0266 5.48834 72.8391 5.36334L77.4329 4.70709L79.4641 0.550844Z" fill="#FFC000"/>
<path d="M61.4641 0.550844C61.8391 -0.199156 62.9016 -0.167906 63.2454 0.550844L65.3079 4.70709L69.8704 5.36334C70.6829 5.48834 70.9954 6.48834 70.4016 7.08209L67.1204 10.3008L67.9016 14.8321C68.0266 15.6446 67.1516 16.2696 66.4329 15.8946L62.3704 13.7383L58.2766 15.8946C57.5579 16.2696 56.6829 15.6446 56.8079 14.8321L57.5891 10.3008L54.3079 7.08209C53.7141 6.48834 54.0266 5.48834 54.8391 5.36334L59.4329 4.70709L61.4641 0.550844Z" fill="#FFC000"/>
<path d="M43.4641 0.550844C43.8391 -0.199156 44.9016 -0.167906 45.2454 0.550844L47.3079 4.70709L51.8704 5.36334C52.6829 5.48834 52.9954 6.48834 52.4016 7.08209L49.1204 10.3008L49.9016 14.8321C50.0266 15.6446 49.1516 16.2696 48.4329 15.8946L44.3704 13.7383L40.2766 15.8946C39.5579 16.2696 38.6829 15.6446 38.8079 14.8321L39.5891 10.3008L36.3079 7.08209C35.7141 6.48834 36.0266 5.48834 36.8391 5.36334L41.4329 4.70709L43.4641 0.550844Z" fill="#FFC000"/>
<path d="M25.4641 0.550844C25.8391 -0.199156 26.9016 -0.167906 27.2454 0.550844L29.3079 4.70709L33.8704 5.36334C34.6829 5.48834 34.9954 6.48834 34.4016 7.08209L31.1204 10.3008L31.9016 14.8321C32.0266 15.6446 31.1516 16.2696 30.4329 15.8946L26.3704 13.7383L22.2766 15.8946C21.5579 16.2696 20.6829 15.6446 20.8079 14.8321L21.5891 10.3008L18.3079 7.08209C17.7141 6.48834 18.0266 5.48834 18.8391 5.36334L23.4329 4.70709L25.4641 0.550844Z" fill="#FFC000"/>
<path d="M7.46414 0.550844C7.83914 -0.199156 8.90164 -0.167906 9.24539 0.550844L11.3079 4.70709L15.8704 5.36334C16.6829 5.48834 16.9954 6.48834 16.4016 7.08209L13.1204 10.3008L13.9016 14.8321C14.0266 15.6446 13.1516 16.2696 12.4329 15.8946L8.37039 13.7383L4.27664 15.8946C3.55789 16.2696 2.68289 15.6446 2.80789 14.8321L3.58914 10.3008L0.307891 7.08209C-0.285859 6.48834 0.0266407 5.48834 0.839141 5.36334L5.43289 4.70709L7.46414 0.550844Z" fill="#FFC000"/>
</svg>
