<svg width="52" height="52" viewBox="0 0 52 52" fill="none" xmlns="http://www.w3.org/2000/svg">
<path d="M25.9707 50.7008C39.7746 50.7008 50.9649 39.5749 50.9649 25.8504C50.9649 12.1259 39.7746 1 25.9707 1C12.1668 1 0.976562 12.1259 0.976562 25.8504C0.976562 39.5749 12.1668 50.7008 25.9707 50.7008Z" stroke="#B7B7B7"/>
<path d="M33.255 21.228C32.7194 21.4962 32.1838 21.5857 31.559 21.6751C32.1838 21.3174 32.6302 20.7809 32.8087 20.0656C32.2731 20.4232 31.6483 20.6021 30.9341 20.7809C30.3986 20.2444 29.5952 19.8867 28.7918 19.8867C27.2743 19.8867 25.9353 21.228 25.9353 22.8375C25.9353 23.1058 25.9353 23.2846 26.0246 23.4634C23.6144 23.374 21.3828 22.2116 19.9546 20.4232C19.6868 20.8703 19.5975 21.3174 19.5975 21.9433C19.5975 22.9269 20.1331 23.8211 20.9365 24.3576C20.4902 24.3576 20.0438 24.1788 19.5975 23.9999C19.5975 25.4306 20.5794 26.5931 21.9184 26.8613C21.6506 26.9507 21.3828 26.9507 21.115 26.9507C20.9365 26.9507 20.758 26.9507 20.5794 26.8613C20.9365 28.0238 22.0077 28.9179 23.3466 28.9179C22.3647 29.7227 21.115 30.1698 19.6868 30.1698C19.419 30.1698 19.2405 30.1698 18.9727 30.1698C20.3116 30.9746 21.8291 31.5111 23.4359 31.5111C28.7918 31.5111 31.7375 27.0402 31.7375 23.1952C31.7375 23.1058 31.7375 22.9269 31.7375 22.8375C32.3624 22.3904 32.898 21.8539 33.255 21.228Z" fill="#6161FF"/>
</svg>
